<?xml version="1.0" standalone="no"?>
<!DOCTYPE svg PUBLIC "-//W3C//DTD SVG 1.1//EN" "http://www.w3.org/Graphics/SVG/1.1/DTD/svg11.dtd" >
<svg>
<metadata>
Created by FontForge 20090622 at Wed Jul 11 14:52:42 2018
 By deploy user
Copyright (c) 1988, 1990 Adobe Systems Incorporated.  All Rights Reserved.Times New Roman is a trademark of the Monotype Corporation Plc registered in the US Patent and TM Office and elsewhere.
</metadata>
<defs>
<font id="TimesNewRomanPS-Italic" horiz-adv-x="500" >
  <font-face 
    font-family="TimesNewRomanPS"
    font-weight="400"
    font-style="italic"
    font-stretch="normal"
    units-per-em="1000"
    panose-1="2 2 5 0 0 0 0 0 0 0"
    ascent="800"
    descent="-200"
    x-height="430"
    cap-height="662"
    bbox="-174 -216 1031 868"
    underline-thickness="50"
    underline-position="-50"
    slope="-17"
    unicode-range="U+0020-U+2122"
  />
<missing-glyph horiz-adv-x="502" 
d="M-1 0h500v500h-500v-500zM9 10v480h480v-480h-480z" />
    <glyph glyph-name=".notdef" horiz-adv-x="502" 
d="M-1 0h500v500h-500v-500zM9 10v480h480v-480h-480z" />
    <glyph glyph-name="space" unicode=" " horiz-adv-x="250" 
 />
    <glyph glyph-name="exclam" unicode="!" horiz-adv-x="333" 
d="M157 161l92 257q1 4 9 24l20 56t17 50t16 54t6 36q0 15 -8.5 27t-22.5 12q-17 0 -29 -10.5t-19 -26.5t-11 -31t-7 -36q-18 -103 -33 -179.5l-36 -176.5l-12 -56h18zM124 -15q21 0 35.5 14.5t14.5 35.5t-14.5 35.5t-35.5 14.5t-35.5 -14.5t-14.5 -35.5t14.5 -35.5
t35.5 -14.5z" />
    <glyph glyph-name="quotedbl" unicode="&#x22;" horiz-adv-x="420" 
d="M163 392q21 40 39.5 79.5l34 75.5t24 61t8.5 36q0 33 -35 33q-22 0 -37 -11t-23 -28.5t-11.5 -36t-5.5 -41.5l-17 -168h23zM343 392q21 40 39.5 79.5l34 75.5t24 61t8.5 36q0 33 -35 33q-22 0 -37 -11t-23 -28.5t-11.5 -36t-5.5 -41.5l-17 -168h23z" />
    <glyph glyph-name="numbersign" unicode="#" 
d="M80 -15h41l46 224h168l-46 -224h41l46 224h132v40h-124l34 164h90v40h-82l46 224h-41l-46 -224h-168l46 224h-41l-46 -224h-132v-40h124l-34 -164h-90v-40h82zM175 249l34 164h168l-34 -164h-168z" />
    <glyph glyph-name="dollar" unicode="$" 
d="M288 412q-35 30 -54 56.5t-19 60.5q0 45 30 77.5t75 32.5q19 0 32 -4zM286 299q40 -33 63.5 -66t23.5 -74q0 -30 -12 -56t-33.5 -46t-48.5 -30.5t-56 -10.5h-20zM381 627q30 -14 44 -44t14 -66q0 -16 -3 -33h21l32 118q-42 41 -100 56l13 42h-32l-11 -38q-19 3 -41 3
q-33 0 -65 -12t-56.5 -33.5t-39 -51.5t-14.5 -64q0 -56 31 -98t87 -85l-85 -299q-37 9 -58 42t-21 72q0 17 6 49h-21l-40 -139q53 -41 122 -54l-17 -58h32l16 56h14q57 0 101 17.5t73.5 48t44 67.5t14.5 76q0 56 -35 102t-94 92z" />
    <glyph glyph-name="percent" unicode="%" horiz-adv-x="833" 
d="M705 342q-39 0 -74 -20t-61 -54t-40.5 -73.5t-14.5 -77.5q0 -54 33 -91.5t86 -37.5q31 0 64 17t60 47.5t43.5 70.5t16.5 83q0 63 -35 99.5t-78 36.5zM705 322q28 0 39.5 -19.5t11.5 -46.5q0 -24 -10 -66.5t-27.5 -84t-41.5 -69.5t-51 -28q-23 0 -36 18t-13 42
q0 27 9.5 70t27 85.5t41.5 70.5t50 28zM264 674q-39 0 -74 -20t-61 -54t-40.5 -73.5t-14.5 -77.5q0 -54 33 -91.5t86 -37.5q31 0 64 17t60 47.5t43.5 70.5t16.5 83q0 63 -35 99.5t-78 36.5zM264 654q28 0 39.5 -19.5t11.5 -46.5q0 -24 -10 -66.5t-27.5 -84t-41.5 -69.5
t-51 -28q-23 0 -36 18t-13 42q0 27 9.5 70t27 85.5t41.5 70.5t50 28zM820 677h-47l-692 -692h47z" />
    <glyph glyph-name="ampersand" unicode="&#x26;" horiz-adv-x="778" 
d="M399 429q-9 47 -9 81q0 24 3.5 47t13 43t26.5 32.5t42 12.5q28 0 44 -19.5t16 -47.5q0 -55 -38 -91t-98 -58zM322 367q15 -78 40 -148.5t62 -130.5q-40 -29 -69 -42t-69 -13q-63 0 -102.5 40.5t-39.5 103.5q0 34 15.5 64.5t41.5 55t57.5 42t63.5 28.5zM524 347v-18
q18 0 31 -7t13 -23t-7 -35.5t-18.5 -39t-25 -38t-25.5 -32.5q-27 51 -46.5 108.5t-40.5 134.5q36 10 69.5 26t61.5 38.5t45 52.5t17 67q0 45 -31.5 70.5t-77.5 25.5q-32 0 -63.5 -13t-57 -40t-41 -67.5t-15.5 -93.5q0 -16 3 -49q1 -6 2 -17q-85 -24 -139.5 -54t-83 -62.5
t-38.5 -64t-10 -65.5q0 -20 6.5 -46.5t25.5 -54t57.5 -46.5t98.5 -19q112 0 209 75q29 -38 64.5 -56.5t84.5 -18.5q45 0 79 18.5t60 56.5h-22q-14 -16 -34 -25.5t-41 -9.5q-39 0 -71 28.5t-55 69.5l81 112q33 47 59.5 68t73.5 26v18h-198z" />
    <glyph glyph-name="quotesingle" unicode="'" horiz-adv-x="214" 
d="M153 392q21 40 39.5 79.5l34 75.5t24 61t8.5 36q0 33 -35 33q-22 0 -37 -11t-23 -28.5t-11.5 -36t-5.5 -41.5l-17 -168h23z" />
    <glyph glyph-name="parenleft" unicode="(" horiz-adv-x="333" 
d="M203 -206q-27 59 -41 113t-14 109q0 65 16.5 152.5t53 182.5t96.5 181.5t143 144.5l-12 17q-82 -60 -145.5 -120t-112.5 -129.5t-76.5 -152t-27.5 -177.5q0 -80 27 -158t76 -173z" />
    <glyph glyph-name="parenright" unicode=")" horiz-adv-x="333" 
d="M145 684q27 -59 41 -113t14 -109q0 -65 -16.5 -152.5t-53 -182.5t-96.5 -181.5t-143 -144.5l12 -17q82 60 145.5 120t112.5 129.5t76.5 152t27.5 177.5q0 80 -27 158t-76 173z" />
    <glyph glyph-name="asterisk" unicode="*" 
d="M290 492q-10 -7 -24 -11t-40 -9q-46 -9 -71 -21.5t-25 -40.5q0 -15 11.5 -25t25.5 -10q22 0 39.5 13.5t40.5 39.5q17 19 28.5 29.5t24.5 16.5q0 -26 -17 -74q-14 -39 -14 -57q0 -22 10 -37.5t30 -15.5t30 15.5t10 37.5q0 18 -14 57q-17 48 -17 74q13 -6 24.5 -16.5
t28.5 -29.5q23 -26 40.5 -39.5t39.5 -13.5q15 0 26 10t11 25q0 28 -24.5 40t-71.5 22q-23 5 -38.5 9t-25.5 11q10 7 24 11t40 9q47 9 71.5 21.5t24.5 40.5q0 15 -11 25t-26 10q-22 0 -39.5 -13.5t-40.5 -39.5q-17 -19 -28.5 -29.5t-24.5 -16.5q0 26 17 74q14 39 14 57
q0 22 -10 37.5t-30 15.5t-30 -15.5t-10 -37.5q0 -18 14 -57q17 -48 17 -74q-13 6 -24.5 16.5t-28.5 29.5q-23 26 -40.5 39.5t-39.5 13.5q-14 0 -25.5 -10t-11.5 -25q0 -28 24.5 -40t71.5 -22q23 -5 39 -9t25 -11z" />
    <glyph glyph-name="plus" unicode="+" horiz-adv-x="675" 
d="M343 69h40v243h243v40h-243v243h-40v-243h-243v-40h243v-243z" />
    <glyph glyph-name="comma" unicode="," horiz-adv-x="250" 
d="M-1 -126q25 9 49 24.5t42 35.5q43 47 43 99q0 24 -14.5 39.5t-35.5 15.5t-35.5 -14.5t-14.5 -35.5q0 -14 4.5 -22t14.5 -16q7 -7 11 -13t4 -16q0 -24 -24.5 -46.5t-52.5 -34.5z" />
    <glyph glyph-name="hyphen" unicode="-" horiz-adv-x="333" 
d="M299 251h-253l-20 -68h253z" />
    <glyph glyph-name="period" unicode="." horiz-adv-x="250" 
d="M83 -12q21 0 35.5 14.5t14.5 35.5t-14.5 35.5t-35.5 14.5t-35.5 -14.5t-14.5 -35.5t14.5 -35.5t35.5 -14.5z" />
    <glyph glyph-name="slash" unicode="/" horiz-adv-x="278" 
d="M380 694h-41l-374 -709h43z" />
    <glyph glyph-name="zero" unicode="0" 
d="M209 -12q56 0 108 41t92 109.5t62.5 150.5t22.5 160q0 109 -43 167t-100 58q-61 0 -114.5 -43.5t-93 -114t-61.5 -152.5t-22 -157q0 -40 7 -78t24 -70t46 -51.5t72 -19.5zM211 10q-41 0 -59 30t-18 74q0 37 14.5 126t41 184t66.5 161.5t89 66.5q20 0 34.5 -11t23.5 -28.5
t13 -37.5t4 -38q0 -44 -15 -132t-42.5 -179t-66.5 -153.5t-85 -62.5z" />
    <glyph glyph-name="one" unicode="1" 
d="M418 674h-18l-170 -44l6 -18q26 6 39 6q35 0 35 -37q0 -17 -8 -45l-1 -2l-117 -410q-10 -36 -20.5 -57t-23 -31.5t-30.5 -14t-47 -3.5l-5 -18h262l5 18q-37 0 -57.5 8.5t-20.5 34.5q0 9 4.5 26.5t11.5 41.5q0 1 3 12z" />
    <glyph glyph-name="two" unicode="2" 
d="M345 0l55 132h-18q-9 -21 -23 -33.5t-30 -18.5t-30 -7t-33 -1h-153l245 238q16 16 33 36.5t35 48.5t30.5 61.5t12.5 66.5q0 63 -42.5 107t-105.5 44q-60 0 -107 -36.5t-70 -94.5l17 -8q19 32 49 49.5t66 17.5q50 0 80 -33t30 -84q0 -23 -6 -47.5t-21.5 -55t-44.5 -67
t-74 -80.5l-224 -217v-18h329z" />
    <glyph glyph-name="three" unicode="3" 
d="M153 360q77 -4 124.5 -47.5t47.5 -119.5q0 -23 -6.5 -50.5t-19.5 -52.5t-33 -40.5t-45 -15.5q-22 0 -40 7.5t-41 20.5q-21 12 -35 18t-29 6q-17 0 -30 -12t-13 -30q0 -16 12 -27t30.5 -17.5t37.5 -9t34 -2.5q51 0 98.5 19.5t84 54t57.5 80.5t21 98q0 53 -26.5 94.5
t-75.5 58.5v2q61 22 103.5 61.5t42.5 96.5q0 53 -35.5 87t-89.5 34q-53 0 -93 -31t-61 -82l18 -5q18 30 42 48.5t55 18.5q37 0 60 -26t23 -64q0 -36 -21 -64t-54.5 -47t-70 -29.5t-72.5 -14.5v-18z" />
    <glyph glyph-name="four" unicode="4" 
d="M487 662h-38l-397 -428l-21 -68h240l-52 -178h71l52 178h80l17 61h-79zM94 227l282 306l3 2l-90 -308h-195z" />
    <glyph glyph-name="five" unicode="5" 
d="M259 662l-106 -238q91 -5 140 -52.5t49 -138.5q0 -33 -10 -67t-29 -63t-47 -47t-62 -18q-16 0 -28 6.5t-28 18.5q-16 13 -28.5 19.5t-29.5 6.5q-18 0 -31 -12t-13 -30q0 -17 10 -28.5t25 -18t31.5 -9.5t32.5 -3q54 0 104.5 24.5t89.5 66.5t61.5 97t22.5 114
q0 90 -51 144.5t-141 65.5l38 83h198l22 79h-220z" />
    <glyph glyph-name="six" unicode="6" 
d="M525 674q-88 -5 -172 -47.5t-149.5 -112t-103 -156t-37.5 -174.5q0 -82 42 -139t121 -57q38 0 79.5 20.5t77 58t57 90t21.5 112.5q0 71 -41 119.5t-111 48.5q-20 0 -37.5 -6t-42.5 -17v0l-2 2q24 41 56 79.5t70.5 71.5t82.5 56.5t89 32.5v18zM202 372q22 15 38 22.5
t35 7.5q47 0 72.5 -35.5t25.5 -84.5q0 -56 -13.5 -105.5t-36.5 -87.5t-50.5 -58.5t-53.5 -20.5q-43 0 -64.5 35.5t-21.5 81.5q0 56 19 118t50 127z" />
    <glyph glyph-name="seven" unicode="7" 
d="M194 662l-77 -145h20q26 45 54.5 55.5t88.5 10.5h158l-325 -577l39 -18l372 656v18h-330z" />
    <glyph glyph-name="eight" unicode="8" 
d="M337 371q67 22 109 64.5t42 106.5q0 30 -13.5 54.5t-37 42t-51.5 26.5t-56 9q-71 0 -121.5 -45t-50.5 -115q0 -39 20 -75t55 -79q-96 -38 -145.5 -92.5t-49.5 -118.5q0 -29 12.5 -57.5t36.5 -52t56.5 -37.5t71.5 -14q51 0 92 19t67.5 50t40 65.5t13.5 64.5q0 49 -25 95
t-66 89zM318 391q-6 7 -8 10q-39 45 -59.5 79t-20.5 75q0 42 27.5 69.5t68.5 27.5q49 0 76 -30.5t27 -79.5q0 -51 -31 -94t-80 -57zM251 340q48 -54 75.5 -100t27.5 -98q0 -26 -10 -50t-28 -42.5t-41 -29t-49 -10.5q-55 0 -89 32t-34 88q0 70 41 128.5t107 81.5z" />
    <glyph glyph-name="nine" unicode="9" 
d="M29 -12q89 5 172.5 47.5t149 112t103 155.5t37.5 175q0 81 -42.5 138.5t-121.5 57.5q-45 0 -87.5 -23.5t-75.5 -64.5t-52 -92t-19 -102q0 -72 41 -120t111 -48q22 0 38.5 5.5t42.5 18.5l2 -2q-23 -41 -55.5 -80t-72 -73t-83 -56.5t-88.5 -30.5v-18zM352 289
q-22 -15 -38 -22.5t-36 -7.5q-49 0 -73 34.5t-24 85.5q0 54 13 104t34.5 88t46.5 59.5t48 21.5q27 0 46.5 -10.5t30.5 -28t16 -38t5 -42.5q0 -56 -19.5 -120.5t-49.5 -123.5z" />
    <glyph glyph-name="colon" unicode=":" horiz-adv-x="333" 
d="M109 -12q21 0 35.5 14.5t14.5 35.5t-14.5 35.5t-35.5 14.5t-35.5 -14.5t-14.5 -35.5t14.5 -35.5t35.5 -14.5zM212 342q21 0 35.5 14.5t14.5 35.5t-14.5 35.5t-35.5 14.5t-35.5 -14.5t-14.5 -35.5t14.5 -35.5t35.5 -14.5z" />
    <glyph glyph-name="semicolon" unicode=";" horiz-adv-x="333" 
d="M25 -126q25 9 49 24.5t42 35.5q43 47 43 99q0 24 -14.5 39.5t-35.5 15.5t-35.5 -14.5t-14.5 -35.5q0 -14 4.5 -22t14.5 -16q7 -7 11 -13t4 -16q0 -24 -24.5 -46.5t-52.5 -34.5zM212 342q21 0 35.5 14.5t14.5 35.5t-14.5 35.5t-35.5 14.5t-35.5 -14.5t-14.5 -35.5
t14.5 -35.5t35.5 -14.5z" />
    <glyph glyph-name="less" unicode="&#x3c;" horiz-adv-x="675" 
d="M173 332l453 198v44l-526 -230v-24l526 -230v44z" />
    <glyph glyph-name="equal" unicode="=" horiz-adv-x="675" 
d="M626 392v40h-526v-40h526zM626 232v40h-526v-40h526z" />
    <glyph glyph-name="greater" unicode="&#x3e;" horiz-adv-x="675" 
d="M553 332l-453 -198v-44l526 230v24l-526 230v-44z" />
    <glyph glyph-name="question" unicode="?" 
d="M175 163q5 35 19.5 64.5t35.5 53.5t42.5 41.5t58.5 44.5q65 48 96 83.5t31 87.5q0 22 -10 46t-31 45.5t-53 34.5t-74 13q-26 0 -53 -7.5t-50 -21.5t-37.5 -35.5t-14.5 -49.5q0 -17 11.5 -30t28.5 -13t29 10.5t12 27.5q0 11 -8 30q-8 16 -8 25q0 11 8.5 19.5t22.5 13.5
q23 9 48 9q43 0 72 -25t29 -67q0 -44 -24 -81t-75 -92q-59 -64 -90 -113.5t-34 -113.5h18zM146 -15q21 0 35.5 14.5t14.5 35.5t-14.5 35.5t-35.5 14.5t-35.5 -14.5t-14.5 -35.5t14.5 -35.5t35.5 -14.5z" />
    <glyph glyph-name="at" unicode="@" horiz-adv-x="920" 
d="M689 467l-77 -10l-14 -51h-2q-4 29 -28 46.5t-55 17.5q-42 0 -89 -30.5t-88.5 -82t-67 -112.5t-25.5 -119q0 -43 24.5 -77t65.5 -34q26 0 53 13.5t51.5 34t45 44t39.5 47.5l2 -2q-9 -40 -9 -70q0 -34 20 -50.5t55 -16.5q63 0 113.5 31t85 82t52.5 111.5t18 119.5
q0 76 -26 138.5t-73 106.5t-111.5 67t-139.5 23q-97 0 -182 -37.5t-147.5 -104t-96.5 -153.5t-34 -184q0 -91 31.5 -170t89.5 -138t136.5 -91t169.5 -32q70 0 137 21t124 61t98.5 95.5t62.5 122.5h-28q-53 -127 -156.5 -198.5t-239.5 -71.5q-83 0 -153 29t-120.5 81.5
t-78 124t-27.5 153.5q0 90 30 174.5t86 151t134 104.5t170 38q67 0 125 -21.5t100.5 -62t66 -96.5t23.5 -124q0 -59 -18 -116.5t-49 -102.5t-68 -71t-73 -26q-15 0 -25 11.5t-10 26.5q0 18 4.5 37.5t13.5 48.5q0 2 1 5zM320 144q0 31 17.5 82.5t46.5 102.5t64 85t69 34
q29 0 45 -20.5t16 -50.5q0 -53 -19.5 -107.5t-51 -99t-66.5 -71t-64 -26.5q-26 0 -41.5 21.5t-15.5 49.5z" />
    <glyph glyph-name="A" unicode="A" horiz-adv-x="611" 
d="M387 218l-9 -102q-4 -54 -20 -76t-73 -22l-5 -18h260l5 18q-44 0 -64.5 12t-20.5 45q0 23 4 63l1 17l49 522h-18l-398 -542l-11 -14q-35 -50 -64 -76.5t-68 -26.5l-5 -18h196l5 18q-29 0 -42 10.5t-13 29.5q0 14 9 30.5t25 37.5q5 6 8 11l60 81h189zM414 512h2l-25 -259
h-166z" />
    <glyph glyph-name="B" unicode="B" horiz-adv-x="611" 
d="M92 124q-11 -39 -19.5 -58.5t-19.5 -30t-27 -14t-45 -3.5l-5 -18h279q72 0 124.5 17.5t86 47t49 67t15.5 78.5q0 49 -33 86.5t-81 52.5l2 2q70 13 120.5 57.5t50.5 113.5q0 26 -10.5 50.5t-34 45t-63.5 32.5t-96 12h-231l-5 -18q39 0 57 -7.5t18 -31.5q0 -19 -4.5 -39
t-12.5 -46v-1zM235 333h39q72 0 112.5 -30t40.5 -99q0 -39 -16.5 -70.5t-44.5 -53.5t-63.5 -33.5t-72.5 -11.5q-45 0 -80 8zM321 624l15 1q20 2 31 2q58 0 92 -24t34 -80q0 -24 -9 -50t-31 -50t-60 -39.5t-94 -15.5h-53z" />
    <glyph glyph-name="C" unicode="C" horiz-adv-x="667" 
d="M704 677h-18q-2 -2 -2 -3q-13 -15 -23 -22.5t-24 -7.5q-13 0 -37 9l-2 1q-31 12 -53 17.5t-51 5.5q-83 0 -161 -34.5t-138 -94.5t-94 -137.5t-34 -160.5q0 -60 20 -109t56.5 -84t86.5 -53.5t109 -18.5q92 0 159 42t117 124h-23q-43 -61 -97 -92.5t-124 -31.5
q-91 0 -146 59.5t-55 151.5q0 68 22 140t64.5 133t102 97.5t132.5 36.5q20 0 43 -4.5t46.5 -18.5t39.5 -43t16 -75v-41h18z" />
    <glyph glyph-name="D" unicode="D" horiz-adv-x="722" 
d="M92 124q-11 -39 -19.5 -58.5t-19.5 -30t-27 -14t-45 -3.5l-5 -18h280q123 0 211 37.5t141 96.5t76.5 124.5t23.5 123.5q0 52 -14 100t-49 89t-98.5 66t-156.5 25h-236l-5 -18q39 0 57 -7.5t18 -31.5q0 -19 -4.5 -39t-12.5 -46v-1zM324 625q30 2 56 2q114 0 169.5 -55
t55.5 -169q0 -79 -21 -146.5t-65 -118t-113 -78.5t-162 -28q-42 0 -61 5t-19 25q0 7 4 23.5t10 37.5q5 17 5 18z" />
    <glyph glyph-name="E" unicode="E" horiz-adv-x="611" 
d="M92 124q-11 -39 -19.5 -58.5t-19.5 -30t-27 -14t-45 -3.5l-5 -18h511l63 184h-18q-29 -50 -57 -79.5t-60.5 -44.5t-71.5 -20t-99 -5q-50 0 -65 4.5t-15 26.5q0 9 3 20.5l8 29.5q1 4 2 7l60 206h81q15 0 26.5 -1.5t23.5 -7t19.5 -18.5t7.5 -34q0 -18 -7 -50h18l68 241h-18
q-15 -35 -30.5 -54.5t-33.5 -28t-38.5 -10.5t-58.5 -2h-49l76 263h132q39 0 63.5 -10t36.5 -24t16 -28t4 -24q0 -18 -3 -39h18l42 160h-477l-5 -18q39 0 57 -7.5t18 -31.5q0 -19 -4.5 -39t-12.5 -46v-1z" />
    <glyph glyph-name="F" unicode="F" horiz-adv-x="611" 
d="M322 627h156q21 0 40 -2t39.5 -9.5t34 -25.5t13.5 -48q0 -12 -3 -36q-1 -4 -2 -12h18l49 168h-513l-5 -18q39 0 57 -7.5t18 -31.5q0 -19 -4.5 -39t-12.5 -46v-1l-115 -395q-11 -39 -19.5 -58.5t-19.5 -30t-27 -14t-45 -3.5l-5 -18h262l5 18q-37 0 -57.5 8.5t-20.5 34.5
q0 9 4.5 26.5t11.5 41.5q0 1 3 12l53 188h81q25 0 41 -1.5t29.5 -7t22 -18t8.5 -34.5q0 -18 -7 -50h18l68 241h-18q-15 -35 -30.5 -54.5t-33.5 -28t-38.5 -10.5t-58.5 -2h-73z" />
    <glyph glyph-name="G" unicode="G" horiz-adv-x="722" 
d="M721 677h-18l-2 -3q-9 -15 -17.5 -22.5t-23.5 -7.5q-11 0 -28 8q-2 0 -6 2q-55 23 -129 23q-92 0 -171 -36.5t-136 -98t-88 -136t-31 -148.5q0 -46 14.5 -93t48.5 -88t92 -66.5t141 -25.5q52 0 94.5 11t100.5 36l55 194q10 39 29 63.5t58 24.5h21l5 18h-282l-5 -18
q44 0 69.5 -7.5t25.5 -31.5q0 -19 -4.5 -39t-12.5 -46v-1l-41 -143q-35 -14 -59.5 -20t-52.5 -6q-48 0 -84.5 18t-61 49.5t-36.5 72.5t-12 87q0 70 22.5 140t65 128t103.5 92.5t134 34.5q27 0 55 -7.5t52 -22.5t38 -38t14 -52q0 -12 -3 -39q-1 -5 -2 -14h19z" />
    <glyph glyph-name="H" unicode="H" horiz-adv-x="722" 
d="M248 367l55 189q10 39 29 63.5t58 24.5h21l5 18h-262l-5 -18q39 0 57 -7.5t18 -31.5q0 -19 -4.5 -39t-12.5 -46v-1l-115 -395q-11 -39 -19.5 -58.5t-19.5 -30t-27 -14t-45 -3.5l-5 -18h262l5 18q-37 0 -57.5 8.5t-20.5 34.5q0 9 4.5 26.5t11.5 41.5q0 1 3 12l55 191h307
l-61 -208q-11 -39 -19.5 -58.5t-19.5 -30t-27 -14t-45 -3.5l-5 -18h262l5 18q-37 0 -57.5 8.5t-20.5 34.5q0 9 4.5 26.5t11.5 41.5q0 1 3 12l119 415q10 39 29 63.5t58 24.5h21l5 18h-262l-5 -18q39 0 57 -7.5t18 -31.5q0 -19 -4.5 -39t-12.5 -46v-1l-44 -152h-308z" />
    <glyph glyph-name="I" unicode="I" horiz-adv-x="333" 
d="M303 556q10 39 29 63.5t58 24.5h21l5 18h-262l-5 -18q39 0 57 -7.5t18 -31.5q0 -19 -4.5 -39t-12.5 -46v-1l-115 -395q-11 -39 -19.5 -58.5t-19.5 -30t-27 -14t-45 -3.5l-5 -18h262l5 18q-37 0 -57.5 8.5t-20.5 34.5q0 9 4.5 26.5t11.5 41.5q0 1 3 12z" />
    <glyph glyph-name="J" unicode="J" horiz-adv-x="444" 
d="M260 253l-3 -9q-12 -45 -25 -81t-32.5 -70t-49 -56t-68.5 -22q-13 0 -24 7t-11 19q0 7 12 20q8 10 12.5 17.5t4.5 18.5q0 20 -14.5 32.5t-34.5 12.5q-28 0 -45.5 -19.5t-17.5 -47.5q0 -46 35 -68t83 -22q96 0 160 63.5t92 162.5l99 345q10 39 29 63.5t58 24.5h21l5 18
h-262l-5 -18q39 0 57 -7.5t18 -31.5q0 -19 -4.5 -39t-12.5 -46v-1z" />
    <glyph glyph-name="K" unicode="K" horiz-adv-x="667" 
d="M323 376l273 209q33 25 63.5 39.5t67.5 19.5l5 18h-212l-5 -18q12 0 24 -8t12 -20q0 -9 -8 -20.5t-19.5 -23t-23.5 -21l-24 -18.5l-4 -3l-222 -167l-2 2l55 191q12 40 30 64t57 24h21l5 18h-262l-5 -18q39 0 57 -7.5t18 -31.5q0 -19 -4.5 -39t-12.5 -46v-1l-115 -395
q-11 -39 -19.5 -58.5t-19.5 -30t-27 -14t-45 -3.5l-5 -18h262l5 18q-37 0 -57.5 8.5t-20.5 34.5q0 9 4.5 26.5t11.5 41.5q0 1 3 12l61 210l129 -202l8 -12q15 -22 23 -39t8 -34q0 -23 -19 -34.5t-42 -11.5l-5 -18h283l5 18q-53 0 -82 24t-73 91z" />
    <glyph glyph-name="L" unicode="L" horiz-adv-x="556" 
d="M303 556q10 39 29 63.5t58 24.5h21l5 18h-262l-5 -18q39 0 57 -7.5t18 -31.5q0 -19 -4.5 -39t-12.5 -46v-1l-115 -395q-11 -39 -19.5 -58.5t-19.5 -30t-27 -14t-45 -3.5l-5 -18h487l64 188h-18q-24 -50 -48 -80t-53 -46t-65.5 -21.5t-92.5 -5.5q-49 0 -66 5.5t-17 28.5
q0 8 4 24.5t10 36.5l3 11z" />
    <glyph glyph-name="M" unicode="M" horiz-adv-x="833" 
d="M319 662h-165l-5 -18q28 0 48.5 -7t36.5 -25l-142 -488q-11 -39 -19.5 -58.5t-19.5 -30t-27 -14t-45 -3.5l-5 -18h212l5 18q-37 0 -57.5 8.5t-20.5 34.5q0 9 4.5 26.5t11.5 41.5q0 1 3 12l113 395h2l62 -536h18l385 536l2 -2l-118 -410q-11 -37 -19.5 -57.5t-19 -31
t-27 -14t-45.5 -3.5l-5 -18h262l5 18q-37 0 -57.5 8.5t-20.5 34.5q0 9 4.5 26.5t11.5 41.5q0 1 3 12l119 415q10 39 29 63.5t58 24.5h21l5 18h-158l-384 -533z" />
    <glyph glyph-name="N" unicode="N" horiz-adv-x="667" 
d="M287 662h-166l-5 -18q39 0 64.5 -11t43.5 -42l-132 -467q-11 -39 -19.5 -58.5t-19.5 -30t-27 -14t-45 -3.5l-5 -18h212l5 18q-37 0 -57.5 8.5t-20.5 34.5q0 9 4.5 26.5t11.5 41.5q0 1 3 12l113 400h2l218 -556h18l163 571q10 39 29 63.5t58 24.5h21l5 18h-215l-5 -18
q39 0 57 -7.5t18 -31.5q0 -19 -4.5 -39t-12.5 -46v-1l-108 -374h-2z" />
    <glyph glyph-name="O" unicode="O" horiz-adv-x="722" 
d="M487 677q-86 0 -164.5 -42t-138.5 -111t-93.5 -150t-33.5 -155q0 -33 10.5 -72t35.5 -76t70.5 -61.5t110.5 -24.5q103 0 185.5 46t137 118.5t82.5 152t28 143.5q0 41 -13 82t-41 75t-72 54.5t-104 20.5zM476 645q67 0 102.5 -50t35.5 -120q0 -62 -23 -141.5t-64.5 -152
t-100 -118.5t-125.5 -46q-36 0 -63 15t-44 40t-25.5 57t-8.5 66q0 62 22 139t63.5 149t100.5 117t130 45z" />
    <glyph glyph-name="P" unicode="P" horiz-adv-x="611" 
d="M321 618q45 9 77 9q67 0 96 -29.5t29 -76.5q0 -24 -8.5 -53.5t-29.5 -58.5t-59 -48.5t-95 -19.5q-37 0 -86 14zM237 323q66 -17 119 -17q44 0 90 13.5t85.5 40t63 64.5t23.5 85q0 28 -10 54.5t-32.5 49t-60.5 36t-93 13.5h-268l-5 -18q39 0 57 -7.5t18 -31.5
q0 -19 -4.5 -39t-12.5 -46v-1l-115 -395q-11 -39 -19.5 -58.5t-19.5 -30t-27 -14t-45 -3.5l-5 -18h262l5 18q-37 0 -57.5 8.5t-20.5 34.5q0 9 4.5 26.5t11.5 41.5q0 1 3 12z" />
    <glyph glyph-name="Q" unicode="Q" horiz-adv-x="722" 
d="M284 -15q103 0 185.5 46t137 118.5t82.5 152t28 143.5q0 41 -13 82t-41 75t-72 54.5t-104 20.5q-86 0 -164.5 -42t-138.5 -111t-93.5 -150t-33.5 -155q0 -42 13 -81.5t37.5 -72t58.5 -53t75 -24.5l-196 -158l11 -14q17 8 30 11t31 3q43 0 126 -19l11 -2q10 -2 24 -6
q74 -19 112 -19q32 0 69 9t73.5 27t68 44.5t53.5 60.5l-16 8q-34 -44 -74.5 -64.5t-94.5 -20.5q-36 0 -102 16l-24 5q-78 19 -123 19q-32 0 -53 -4l-2 2zM476 645q67 0 102.5 -50t35.5 -120q0 -62 -23 -141.5t-64.5 -152t-100 -118.5t-125.5 -46q-36 0 -63 15t-44 40
t-25.5 57t-8.5 66q0 62 22 139t63.5 149t100.5 117t130 45z" />
    <glyph glyph-name="R" unicode="R" horiz-adv-x="611" 
d="M416 0h158l5 18q-30 0 -50.5 9.5t-33.5 26.5t-22 38.5t-20 54.5l-61 182q36 5 69 20.5t59 40t41 56.5t15 69q0 69 -50.5 108t-147.5 39h-224l-5 -18q34 0 53.5 -15.5t19.5 -38.5q0 -10 -4 -29t-11 -42l-115 -395q-11 -39 -19.5 -58.5t-19.5 -30t-27 -14t-45 -3.5l-5 -18
h262l5 18q-37 0 -57.5 8.5t-20.5 34.5q0 9 4.5 26.5t11.5 41.5q0 1 3 12l53 188q29 -9 63 -9h11zM320 623q24 4 37 4q58 0 90 -28t32 -85q0 -63 -47.5 -112.5t-131.5 -49.5q-30 0 -55 5z" />
    <glyph glyph-name="S" unicode="S" 
d="M6 -15h18q7 17 19 28t28 11q19 0 59 -15q29 -12 52.5 -18t53.5 -6q43 0 81.5 14t68.5 40t46.5 63t16.5 81q0 55 -31.5 98t-92.5 100q-54 51 -80 85.5t-26 74.5q0 44 34.5 72.5t77.5 28.5q65 0 105 -38t40 -103q0 -15 -4 -41v-3h18l51 220h-18l-3 -5q-12 -18 -21 -26
t-26 -8q-8 0 -38 12q-33 13 -59 20t-54 7q-36 0 -69.5 -11.5t-60 -33.5t-41.5 -52.5t-15 -67.5q0 -52 29.5 -94t87.5 -100q54 -54 80 -90.5t26 -78.5q0 -54 -36.5 -91.5t-92.5 -37.5q-70 0 -113 42t-43 112q0 25 5 57h-18z" />
    <glyph glyph-name="T" unicode="T" horiz-adv-x="556" 
d="M149 662l-48 -177h18q23 83 69 110t136 27h20l-150 -512q-9 -30 -18 -48t-21.5 -27.5t-30.5 -13t-47 -3.5l-5 -18h288l5 18q-46 0 -69 7.5t-23 34.5q0 18 8 49t19 66q1 2 1 3l128 444h55q63 0 83.5 -16t20.5 -55q0 -26 -9 -66h18l54 177h-502z" />
    <glyph glyph-name="U" unicode="U" horiz-adv-x="722" 
d="M284 532l1 4q10 35 17 53t19 30.5t32.5 18.5t53.5 6l5 18h-279l-6 -18q43 0 63.5 -8t20.5 -35q0 -9 -2.5 -21.5t-8.5 -36.5t-14 -51l-31 -105l-24 -82.5t-13 -52t-7.5 -42t-2.5 -37.5q0 -31 13 -64t40.5 -61t70 -45.5t98.5 -17.5q37 0 72.5 7.5t75 33t75.5 79t61 140.5
l83 284q0 1 1 2q11 39 18 58t18 31.5t28.5 18t47.5 5.5l5 18h-210l-5 -18q30 0 52 -8.5t22 -33.5q0 -11 -4 -30.5t-15 -56.5l-58 -202l-1 -4q-19 -65 -35 -108.5t-42 -83t-66.5 -64t-97.5 -24.5q-69 0 -116 37.5t-47 104.5q0 46 21 120z" />
    <glyph glyph-name="V" unicode="V" horiz-adv-x="611" 
d="M290 544q4 34 8 51.5t13 28.5t26 15.5t48 4.5l5 18h-262l-5 -18q46 0 65 -9t19 -35t-4 -70q0 -5 -1 -15l-52 -530h18l366 497q9 13 11 15q59 81 94 114t78 33l5 18h-201l-5 -18q53 0 53 -35q0 -9 -6.5 -23t-16.5 -30t-19.5 -29.5l-19.5 -27.5l-4 -5l-250 -341l-2 2z" />
    <glyph glyph-name="W" unicode="W" horiz-adv-x="833" 
d="M242 181l-2 2l37 363q6 56 22 77t71 21l5 18h-248l-5 -18q35 0 53.5 -12t18.5 -42q0 -23 -3 -63l-2 -17l-53 -525h18l328 510l2 -2l-53 -508h18l326 502l11 18q44 68 77.5 103.5t75.5 35.5l5 18h-196l-5 -18q23 0 37.5 -9.5t14.5 -29.5q0 -19 -15 -47t-36 -61l-7 -10
l-201 -306l-2 2l40 371q3 31 7.5 47.5t14.5 26t27.5 13t49.5 3.5l5 18h-267l-5 -18q18 0 31 -1t25.5 -6.5t20.5 -17.5t8 -32v-19z" />
    <glyph glyph-name="X" unicode="X" horiz-adv-x="611" 
d="M514 662l-5 -18q22 0 40 -5.5t18 -22.5q0 -8 -7.5 -21t-17.5 -26t-23 -27l-25 -27q-6 -6 -11 -12l-112 -113l-42 151l-4 14q-11 39 -11 51q0 25 18 31.5t50 6.5l5 18h-236l-5 -18q46 0 64 -26t35 -88l1 -4l57 -204l-198 -201q-53 -54 -94 -78.5t-75 -24.5l-5 -18h220
l5 18q-23 0 -39.5 7.5t-16.5 24.5q0 12 12 27.5t31 34.5q1 1 7 8l165 165l51 -185l2 -7q6 -23 6 -34q0 -23 -22.5 -32t-49.5 -9l-5 -18h260l5 18q-56 0 -81 33t-44 103l-55 199l185 189q41 45 80 71.5t86 30.5l5 18h-224z" />
    <glyph glyph-name="Y" unicode="Y" horiz-adv-x="556" 
d="M352 352l-51 168l-2 7q-8 25 -12 42t-4 31q0 28 17 36t60 8l5 18h-243l-5 -18q38 0 55.5 -18t30.5 -60l75 -244l-66 -215q-9 -29 -17 -45.5t-19.5 -26t-30 -13.5t-48.5 -4l-5 -18h278l5 18q-17 0 -29 1t-24.5 5t-20.5 12.5t-8 23.5q0 16 5.5 39t14.5 51q1 2 2 6l45 152
l169 235q41 57 70 79t65 22l5 18h-208l-5 -18q32 0 51 -5.5t19 -22.5q0 -13 -15 -37.5t-35 -52.5q-4 -5 -6 -8z" />
    <glyph glyph-name="Z" unicode="Z" horiz-adv-x="556" 
d="M153 662l-49 -151h18q14 40 34 63.5t45 35t55 14.5t76 3h161l-493 -613v-14h476l58 175h-18q-20 -50 -51 -79t-70 -42t-79 -16t-104 -3h-90l491 609v18h-460z" />
    <glyph glyph-name="bracketleft" unicode="[" horiz-adv-x="389" 
d="M45 -199h208l10 35h-137l237 806h137l10 35h-208z" />
    <glyph glyph-name="backslash" unicode="\" horiz-adv-x="278" 
d="M140 694h-35l89 -709h36z" />
    <glyph glyph-name="bracketright" unicode="]" horiz-adv-x="389" 
d="M366 677h-208l-10 -35h137l-237 -806h-137l-10 -35h208z" />
    <glyph glyph-name="asciicircum" unicode="^" horiz-adv-x="422" 
d="M250 674h-18l-208 -351h46l171 288l170 -288h46z" />
    <glyph glyph-name="underscore" unicode="_" 
d="M508 -125v50h-516v-50h516z" />
    <glyph glyph-name="grave" unicode="`" horiz-adv-x="333" 
d="M268 684h-110l144 -167h18z" />
    <glyph glyph-name="a" unicode="a" 
d="M469 442l-77 -12l-16 -54h-2q-7 31 -27.5 48.5t-52.5 17.5q-42 0 -90 -30t-90 -80t-68 -111t-26 -120q0 -43 23.5 -78t65.5 -35q29 0 56.5 12.5t51.5 33t44 43.5t40 50l2 -2q-2 -4 -5.5 -17t-7 -29t-5.5 -29.5t-2 -21.5q0 -40 42 -40q37 0 71.5 30.5t63.5 73.5l-16 12
q0 -1 -3 -4q-20 -27 -37 -45t-30 -18q-12 0 -12 15q0 10 6 31q1 7 2 10zM355 339q0 -57 -21 -110.5t-53.5 -94.5t-66.5 -64.5t-57 -23.5q-26 0 -41 22.5t-15 49.5q0 43 18 95t47 99t63 76.5t65 29.5q33 0 47 -21.5t14 -57.5z" />
    <glyph glyph-name="b" unicode="b" 
d="M289 694h-10l-159 -27v-19q20 4 30 4q18 0 30 -6t12 -21q0 -10 -11 -47q-9 -31 -10 -35l-145 -500q37 -27 74.5 -41t78.5 -14q56 0 109 29t94 76.5t64.5 105t23.5 111.5q0 56 -32.5 94t-87.5 38q-47 0 -82 -21.5t-74 -63.5l-2 2zM164 258q16 54 55.5 95.5t96.5 41.5
q36 0 54.5 -30t18.5 -68q0 -43 -13.5 -92.5t-40 -93.5t-65.5 -71.5t-86 -27.5q-21 0 -42 7t-42 19z" />
    <glyph glyph-name="c" unicode="c" horiz-adv-x="444" 
d="M372 119q-40 -42 -76 -64.5t-81 -22.5q-51 0 -79 30t-28 81q0 43 16 91t46 90.5t70 68t85 25.5q16 0 32 -7t16 -21q0 -7 -13 -18q-11 -9 -16.5 -17.5t-5.5 -22.5q0 -15 10 -25t25 -10q24 0 38 22t14 48q0 39 -32.5 57t-74.5 18q-53 0 -105 -26.5t-94.5 -71.5t-67 -100.5
t-24.5 -110.5q0 -67 39.5 -106t106.5 -39q64 0 116 31.5t97 87.5z" />
    <glyph glyph-name="d" unicode="d" 
d="M541 694h-10l-159 -27v-19q20 4 30 4q18 0 30 -6t12 -21q0 -10 -11 -47q-9 -31 -10 -35l-42 -147q-31 46 -81 46q-46 0 -95.5 -30t-92 -80t-68 -107.5t-25.5 -110.5q0 -47 23.5 -86.5t67.5 -39.5q31 0 61 17.5t56.5 45.5t47 57t40.5 61l2 -2l-3 -9q-31 -94 -31 -124
q0 -19 10 -32.5t29 -13.5t38.5 11t37 27.5t32 33.5t29.5 38l-16 10l-8 -9q-19 -24 -35 -40t-28 -16q-6 0 -9 5.5t-3 11.5q0 5 3.5 19t5.5 23q0 1 1 4zM360 347q0 -34 -20.5 -85.5t-53 -101t-68.5 -82t-65 -32.5q-27 0 -40 24t-13 53q0 39 17 90t46.5 98t64.5 77t69 30
q29 0 46 -20.5t17 -50.5z" />
    <glyph glyph-name="e" unicode="e" horiz-adv-x="444" 
d="M383 117q-53 -41 -87.5 -59.5t-73.5 -18.5q-45 0 -77 29.5t-32 74.5q0 16 4 40q59 6 114.5 21t100 39t70.5 56.5t26 70.5q0 39 -31 55.5t-73 16.5q-55 0 -108 -26.5t-95.5 -71.5t-67 -100.5t-24.5 -109.5q0 -18 6.5 -42t22.5 -48t44 -40t69 -16q60 0 115.5 32t106.5 83z
M121 208q6 33 23 69.5t42.5 69t57 52t65.5 19.5q22 0 35.5 -12.5t13.5 -34.5q0 -21 -14 -46.5t-42.5 -49t-74 -42t-106.5 -25.5z" />
    <glyph glyph-name="f" unicode="f" horiz-adv-x="278" 
d="M297 430h-72q17 59 31.5 100.5t33.5 73.5t42.5 50t54.5 18q10 0 16.5 -3t6.5 -11q0 -2 -4 -8q-9 -17 -9 -26q0 -14 10.5 -22t24.5 -8q18 0 29 12t11 30q0 28 -27.5 43t-57.5 15q-15 0 -36 -5.5t-49.5 -23t-59 -53.5t-57.5 -92q-15 -31 -24.5 -46.5t-21.5 -25.5t-29.5 -14
t-46.5 -4l-8 -32h86l-83 -319q-41 -158 -70 -215.5t-89 -57.5q-6 0 -11.5 2.5t-5.5 7.5q0 3 6 8q12 10 12 21q0 12 -9.5 19.5t-21.5 7.5q-18 0 -30.5 -11t-12.5 -29q0 -22 21.5 -35t44.5 -13q46 0 87.5 31t74 81t56.5 110t38 118l69 274h71z" />
    <glyph glyph-name="g" unicode="g" 
d="M521 411h-132q-22 17 -48 24t-57 7q-55 0 -97.5 -15.5t-70.5 -42t-41.5 -58t-13.5 -64.5q0 -46 35 -80t81 -40v-2q-40 -15 -65 -32q-17 -12 -27.5 -26t-10.5 -30q0 -23 23 -39q-6 -3 -17 -9q-50 -28 -78.5 -53t-28.5 -63q0 -31 21.5 -52t54 -32t67 -15.5t63.5 -4.5
q36 0 77 7.5t78 24.5t60.5 45t23.5 68q0 25 -13 43.5t-33.5 30t-41 17.5t-51.5 14h-2q-10 2 -36 8q-62 15 -81 22t-19 22q0 9 9.5 18t23.5 16t26.5 11.5l27.5 9.5q38 1 74.5 13t66.5 34.5t47.5 54.5t17.5 71q0 20 -9 47h81zM225 163q-34 0 -57 24.5t-23 59.5q0 27 8.5 57.5
t24 56.5t39 42.5t52.5 16.5q38 0 59.5 -23t21.5 -62q0 -26 -8 -55.5t-24 -56.5t-39.5 -43.5t-53.5 -16.5zM117 0q79 -16 126 -28t72.5 -23t34.5 -22.5t9 -27.5q0 -23 -18 -39.5t-45.5 -26t-55.5 -13.5t-49 -4q-23 0 -48.5 3.5t-49.5 12t-39.5 25t-15.5 41.5q0 32 23.5 60
t55.5 42z" />
    <glyph glyph-name="h" unicode="h" 
d="M293 694h-10l-159 -27v-19q20 4 30 4q18 0 30 -6t12 -21q0 -10 -11 -47q-9 -31 -10 -35l-156 -543h73l31 97q12 37 39 86.5t61 95.5t66.5 75.5t53.5 29.5q23 0 23 -25q0 -12 -7 -39t-32 -112v-1q-28 -95 -36.5 -128.5t-8.5 -48.5q0 -19 12 -30.5t30 -11.5q17 0 36.5 11
t37.5 28t34 36.5t26 36.5l-16 9l-15.5 -19.5t-18 -21t-19.5 -18t-17 -7.5q-13 0 -13 15q0 6 10 39.5l26 84.5l2 8l14 46l18 62.5t9.5 35t4.5 26t1 23.5q0 25 -15.5 42t-40.5 17q-30 0 -60.5 -19t-59 -49.5t-50.5 -60.5t-49 -71q-4 -5 -10 -14l-2 2z" />
    <glyph glyph-name="i" unicode="i" horiz-adv-x="278" 
d="M228 442h-10l-159 -27v-19q20 4 30 4q18 0 30 -6t12 -21q0 -10 -11 -47q-9 -31 -10 -35l-53 -189l-3 -12q-7 -24 -10 -35.5t-3 -20.5q0 -21 13 -33.5t34 -12.5q18 0 38.5 11t39.5 28t35 36.5t27 36.5l-17 11q-7 -10 -16 -21t-19 -21.5t-21 -18t-19 -7.5q-14 0 -14 13
q0 11 7 32zM171 587q0 -20 14.5 -34.5t34.5 -14.5t34.5 14.5t14.5 34.5t-14.5 34.5t-34.5 14.5t-34.5 -14.5t-14.5 -34.5z" />
    <glyph glyph-name="j" unicode="j" horiz-adv-x="278" 
d="M76 415v-19q20 4 30 4q18 0 30 -6t12 -21q0 -10 -11 -47q-9 -31 -10 -35l-101 -347q-10 -32 -18 -53t-21 -40.5t-33.5 -31t-48.5 -11.5q-5 0 -9.5 1.5t-4.5 5.5q0 3 6 7q6 5 9.5 9.5t3.5 13.5q0 10 -11.5 17.5t-22.5 7.5q-15 0 -27.5 -11t-12.5 -26q0 -25 19 -37t45 -12
q77 0 133.5 59t88.5 173l123 426h-10zM188 587q0 -20 14.5 -34.5t34.5 -14.5t34.5 14.5t14.5 34.5t-14.5 34.5t-34.5 14.5t-34.5 -14.5t-14.5 -34.5z" />
    <glyph glyph-name="k" unicode="k" horiz-adv-x="444" 
d="M293 694h-10l-159 -27v-19q20 4 30 4q18 0 30 -6t12 -21q0 -10 -11 -47q-9 -31 -10 -35l-156 -543h73l50 173l67 58l44 -172q9 -36 20 -53.5t34 -17.5q16 0 34 10.5t34.5 26.5t29.5 31t32 40l2 2l-17 12l-15.5 -19.5t-19 -21.5t-21 -18.5t-17.5 -7.5q-8 0 -14 8t-12 29
l-56 204l53 45q49 42 84.5 62t84.5 21l5 18h-214l-5 -18q33 0 47.5 -3t14.5 -15q0 -8 -14 -25t-34.5 -36.5l-41 -37.5l-40.5 -35l-7 -6l-44 -39l-2 2z" />
    <glyph glyph-name="l" unicode="l" horiz-adv-x="278" 
d="M296 694h-10l-159 -27v-19q20 4 30 4q18 0 30 -6t12 -21q0 -10 -11 -47q-9 -31 -10 -35l-125 -441l-3 -12q-7 -24 -10 -35.5t-3 -20.5q0 -21 13 -33.5t34 -12.5q18 0 38.5 11t39.5 28t35 36.5t27 36.5l-17 11q-7 -10 -16 -21t-19 -21.5t-21 -18t-19 -7.5q-14 0 -14 13
q0 11 7 32z" />
    <glyph glyph-name="m" unicode="m" horiz-adv-x="722" 
d="M219 442h-10l-159 -27v-19q20 4 30 4q18 0 30 -6t12 -21q0 -10 -11 -47q-9 -31 -10 -35l-82 -291h73l14 51q16 59 44.5 118.5t61.5 108.5t63 77.5t49 28.5q14 0 19.5 -7t5.5 -19q0 -10 -3.5 -23.5l-9.5 -35.5l-4 -15l-80 -284h73l26 80q13 39 39 91.5t58 101.5t63 80
t54 31t23 -25q0 -12 -7 -39t-32 -112v-1q-28 -95 -36.5 -128.5t-8.5 -48.5q0 -19 12 -30.5t30 -11.5q17 0 36.5 11t37.5 28t34 36.5t26 36.5l-16 9l-15.5 -19.5t-18 -21t-19.5 -18t-17 -7.5q-13 0 -13 15q0 6 10 39.5l26 84.5l2 8l14 46l18 62.5t9.5 35t4.5 26t1 23.5
q0 25 -15.5 42t-40.5 17q-32 0 -66 -25t-64 -63.5t-52 -75l-43 -74.5l-2 2l31 106q5 18 9.5 38t4.5 35q0 24 -15 40.5t-40 16.5q-33 0 -65.5 -22t-60.5 -56t-50 -69.5t-39 -68.5l-2 2z" />
    <glyph glyph-name="n" unicode="n" 
d="M221 442h-10l-159 -27v-19q20 4 30 4q18 0 30 -6t12 -21q0 -10 -11 -47q-9 -31 -10 -35l-84 -291h73l31 97q12 37 39 86.5t61 95.5t66.5 75.5t53.5 29.5q23 0 23 -25q0 -12 -7 -39t-32 -112v-1q-28 -95 -36.5 -128.5t-8.5 -48.5q0 -19 12 -30.5t30 -11.5q17 0 36.5 11
t37.5 28t34 36.5t26 36.5l-16 9l-15.5 -19.5t-18 -21t-19.5 -18t-17 -7.5q-13 0 -13 15q0 6 10 39.5l26 84.5l2 8l14 46l18 62.5t9.5 35t4.5 26t1 23.5q0 25 -15.5 42t-40.5 17q-30 0 -60.5 -19t-59 -49.5t-50.5 -60.5t-49 -71q-4 -5 -10 -14l-2 2z" />
    <glyph glyph-name="o" unicode="o" 
d="M183 -12q54 0 105 25.5t90.5 69t61.5 97t22 106.5q0 67 -40 111.5t-106 44.5q-55 0 -107 -25.5t-93 -69.5t-64.5 -97.5t-23.5 -107.5q0 -69 43 -111.5t112 -42.5zM194 12q-41 0 -63 27t-22 70t15 96t41.5 102t61.5 80t74 31t59.5 -27t20.5 -66q0 -51 -15.5 -106.5
t-42.5 -102.5t-61 -75.5t-68 -28.5z" />
    <glyph glyph-name="p" unicode="p" 
d="M221 442h-10l-159 -27v-19q20 4 30 4q18 0 30 -6t12 -21q0 -10 -11 -47q-9 -31 -10 -35l-117 -406q-15 -51 -32 -65.5t-60 -14.5l-5 -18h230l5 18q-33 0 -53.5 5.5t-20.5 27.5q0 10 3 22t9 31l2 8l32 114q40 -25 83 -25q60 0 114 32t93.5 83t61.5 108.5t22 106.5
q0 50 -28 87t-73 37q-53 0 -96.5 -31t-83.5 -82l-2 2zM142 172q18 61 41.5 105.5t49 71t49.5 38.5t45 12q32 0 47 -24t15 -59q0 -49 -17.5 -102.5t-47 -98.5t-64.5 -72.5t-69 -27.5q-25 0 -47.5 9t-36.5 27z" />
    <glyph glyph-name="q" unicode="q" 
d="M474 442l-75 -12l-15 -59h-2q-19 71 -79 71q-46 0 -95.5 -30t-92 -80t-68 -107.5t-25.5 -110.5q0 -47 23.5 -86.5t67.5 -39.5q30 0 59.5 15t55 39.5t46 50.5t39.5 54l2 -2l-76 -260q-15 -51 -34 -66q-11 -8 -26.5 -11t-41.5 -3l-5 -18h230l5 18q-26 0 -45 5.5t-19 27.5
q0 10 3 22t9 31l2 8zM156 46q-27 0 -40 24t-13 53q0 39 17 90t46.5 98t64.5 77t69 30q27 0 45 -21t18 -49q0 -46 -21 -99.5t-54 -99.5t-69 -74.5t-63 -28.5z" />
    <glyph glyph-name="r" unicode="r" horiz-adv-x="389" 
d="M19 0h73l14 55q13 54 41.5 109.5t61 101t59 73.5t34.5 28q11 0 14.5 -5t6.5 -16q2 -12 7.5 -18.5t20.5 -6.5q24 0 37 28t13 55q0 38 -34 38q-25 0 -57.5 -26.5t-63.5 -65t-57 -77.5t-39 -64l-2 2l71 231h-10l-159 -27v-19q20 4 30 4q18 0 30 -6t12 -21q0 -10 -11 -47
q-9 -31 -10 -35z" />
    <glyph glyph-name="s" unicode="s" horiz-adv-x="389" 
d="M365 442h-18q-13 -23 -36 -23q-6 0 -29 8q-21 7 -36 11t-30 4q-49 0 -85.5 -31.5t-36.5 -80.5q0 -33 17.5 -62t52.5 -70q32 -38 48 -64t16 -53q0 -31 -23.5 -50t-55.5 -19q-58 0 -83 37t-25 98h-18l-30 -159h18q4 10 13.5 16.5t20.5 6.5q8 0 26 -7q19 -7 37 -11.5
t44 -4.5t52.5 9.5t48 26.5t34 41t12.5 51q0 40 -21 73.5t-61 77.5q-29 33 -43 53t-14 39q0 26 19 42.5t46 16.5q46 0 69 -37t23 -89h18z" />
    <glyph glyph-name="t" unicode="t" horiz-adv-x="278" 
d="M259 563h-21q-42 -67 -76.5 -99t-92.5 -46l-5 -20h74l-84 -295q-4 -15 -8.5 -36.5t-4.5 -32.5q0 -21 13 -33.5t34 -12.5q18 0 38.5 11t39.5 28t35 36.5t27 36.5l-17 11l-2 -3l-17.5 -24.5t-18.5 -22t-22.5 -19.5t-21.5 -8q-7 0 -10 5.5t-3 11.5q0 11 4.5 28.5t10.5 35.5
l2 8l80 275h77l9 32h-78z" />
    <glyph glyph-name="u" unicode="u" 
d="M475 442l-79 -12l-12 -44q-20 -72 -52 -135t-68.5 -109t-69 -71t-51.5 -25q-22 0 -22 22t20 87q10 30 14 45l28.5 101.5l13.5 50.5t6.5 29t1.5 19q0 42 -42 42q-18 0 -37.5 -10t-38 -26t-33.5 -34.5t-25 -34.5l15 -10l12 15q16 21 29 33t26 12q7 0 10 -4.5t3 -10.5
q0 -14 -5 -33.5t-21 -75.5q-23 -77 -28 -95v-1q-11 -39 -18 -68.5t-7 -51.5q0 -25 14.5 -42t39.5 -17q34 0 69.5 25t67 62.5t54.5 72.5l48 76l2 -2q-26 -77 -37.5 -122t-11.5 -73q0 -39 41 -39q18 0 37 10.5t36.5 27.5t31.5 35.5t25 35.5l-15 11q-25 -37 -39.5 -51
t-29.5 -14q-12 0 -12 15q0 11 7.5 38.5l14.5 52.5l1 2z" />
    <glyph glyph-name="v" unicode="v" horiz-adv-x="444" 
d="M20 412l3 -18q18 5 46 5q13 0 23 -15t20.5 -58t19 -125t15.5 -213h18l86.5 89.5t87 101.5t73.5 109.5t29 92.5q0 24 -14.5 42.5t-37.5 18.5q-16 0 -29 -11.5t-13 -28.5q0 -14 6.5 -22t18.5 -18q10 -7 15 -13t5 -14q0 -21 -18.5 -55t-47 -72.5t-57.5 -72.5l-52 -59l-1 14
q-6 125 -16.5 203t-38.5 149z" />
    <glyph glyph-name="w" unicode="w" horiz-adv-x="667" 
d="M420 442h-18l-199 -326h-2q-5 122 -14 194.5t-28 131.5l-141 -33v-18q20 4 46 4q17 0 28 -13t19.5 -53.5t14.5 -120.5t11 -220h22l199 334h2l32 -334h18q72 86 120 148.5t77 108.5t42.5 80.5t13.5 61.5q0 23 -13 39t-36 16q-16 0 -27.5 -10.5t-11.5 -26.5q0 -14 6 -21.5
t17 -14.5t16 -13.5t5 -18.5q0 -20 -18.5 -55t-45.5 -74t-54 -73.5l-47 -58.5z" />
    <glyph glyph-name="x" unicode="x" horiz-adv-x="444" 
d="M184 219q-6 -14 -23 -44t-38 -60t-40 -51t-30 -21q-6 0 -16 10q-9 7 -16.5 11.5t-18.5 4.5q-16 0 -26.5 -11t-10.5 -27q0 -19 14.5 -31t33.5 -12q22 0 44.5 16t42.5 40t37 50t37 60l18 29l30 -128q7 -29 19 -48t36 -19q15 0 33.5 12t36.5 31t32.5 39.5t21.5 34.5l-17 9
q-3 -7 -12.5 -19t-20 -24t-20.5 -20t-15 -8q-10 0 -17.5 16t-12.5 39l-40 168q38 63 61.5 87.5t38.5 24.5q8 0 24 -5q19 -7 30 -7q16 0 27 12t11 26q0 18 -14 28t-34 10q-35 0 -71 -37t-81 -106l-3 12q-12 47 -24.5 77.5t-37.5 53.5h-2l-4 -1q-17 -3 -39.5 -7.5t-84.5 -14.5
v-18h25q47 0 64.5 -21.5t30.5 -74.5z" />
    <glyph glyph-name="y" unicode="y" horiz-adv-x="444" 
d="M19 406l3 -18q15 3 46 3q29 0 41 -24.5t17 -86.5l27 -308q-7 -11 -26.5 -33t-43 -46t-44 -40t-30.5 -16q-6 0 -10 13q-3 10 -8.5 16.5t-19.5 6.5q-18 0 -33.5 -16.5t-15.5 -34.5q0 -15 12 -26.5t27 -11.5q43 0 93 46.5t147 167.5q6 8 16 20q125 157 174 230.5t49 126.5
q0 26 -13 46.5t-37 20.5q-19 0 -31 -12.5t-12 -31.5q0 -21 9 -30t26 -16q10 -4 15 -8t5 -11q0 -10 -11 -31.5t-29.5 -49l-39 -56.5l-57.5 -80l-46 -64l-23 255q-5 51 -11.5 79t-22.5 56z" />
    <glyph glyph-name="z" unicode="z" horiz-adv-x="389" 
d="M84 430l-41 -123h18q11 21 19 32t18 16.5t22.5 7t36.5 1.5h151l-336 -351v-13h318l43 133h-18q-10 -25 -21 -38.5t-24 -19.5t-28 -7.5t-44 -1.5h-143l339 351v13h-310z" />
    <glyph glyph-name="braceleft" unicode="{" horiz-adv-x="400" 
d="M100 231q38 -7 61 -28t23 -57q0 -15 -7.5 -34t-23.5 -51q-2 -4 -7 -13q-18 -35 -28 -63.5t-10 -56.5q0 -58 38.5 -98t97.5 -46l5 18q-39 9 -61 30.5t-22 59.5q0 21 9.5 45.5t27.5 62.5q18 39 27 64t9 49q0 44 -26.5 77t-68.5 50v2q63 21 103 52.5t60 65t26.5 64.5t6.5 58
q0 47 14.5 82.5t38 59.5t51.5 37t55 15l6 18q-30 -2 -71 -17t-83 -48t-70.5 -90t-28.5 -139q0 -62 -38 -98t-109 -53z" />
    <glyph glyph-name="bar" unicode="|" horiz-adv-x="275" 
d="M290 694h-41l-260 -910h41z" />
    <glyph glyph-name="braceright" unicode="}" horiz-adv-x="400" 
d="M302 247q-38 7 -61 28t-23 57q0 15 7.5 34t23.5 51q2 4 7 13q18 35 28 63.5t10 56.5q0 58 -38.5 98t-97.5 46l-5 -18q39 -9 61 -30.5t22 -59.5q0 -21 -9 -45.5t-28 -62.5q-18 -39 -27 -64t-9 -49q0 -43 26.5 -76.5t68.5 -50.5v-2q-62 -21 -102.5 -52t-60.5 -65t-26.5 -65
t-6.5 -58q0 -47 -14.5 -82.5t-38 -59.5t-51.5 -37t-55 -15l-6 -18q30 2 71 17t83 48t70.5 90t28.5 139q0 62 38 98t109 53z" />
    <glyph glyph-name="asciitilde" unicode="~" horiz-adv-x="541" 
d="M516 411q-4 -40 -27.5 -66t-62.5 -26q-24 0 -49 11t-65 33l-3 2q-40 22 -69.5 34t-58.5 12q-61 0 -99 -47.5t-39 -110.5h23q4 40 27.5 66t62.5 26q24 0 49 -11t65 -33l3 -2q40 -22 69.5 -34t58.5 -12q61 0 99 47.5t39 110.5h-23z" />
    <glyph glyph-name="quotesinglbase" unicode="&#x201a;" horiz-adv-x="333" 
d="M31 -126q25 9 49 24.5t42 35.5q43 47 43 99q0 24 -14.5 39.5t-35.5 15.5t-35.5 -14.5t-14.5 -35.5q0 -14 4.5 -22t14.5 -16q7 -7 11 -13t4 -16q0 -24 -24.5 -46.5t-52.5 -34.5z" />
    <glyph glyph-name="florin" unicode="&#x192;" 
d="M343 438q11 78 20 125.5t18 71t20 31.5t27 8t16 -13q0 -5 -4 -14q-6 -11 -6 -18q0 -12 9.5 -20.5t21.5 -8.5q16 0 25 11t9 27q0 27 -21 41.5t-49 14.5q-30 0 -53 -15t-39 -39.5t-26.5 -48.5t-22.5 -61l-1 -2q-11 -31 -19.5 -48t-20 -26t-28.5 -12.5t-45 -3.5l-8 -32h88
q-27 -100 -49.5 -202t-47.5 -230q-6 -31 -13.5 -58.5t-18 -51t-24 -37t-29.5 -13.5q-13 0 -13 11q0 3 5 12q7 11 7 16q0 11 -10 19.5t-22 8.5q-17 0 -28 -13.5t-11 -31.5q0 -24 18 -38t43 -14q48 0 83.5 36.5t63 104.5t50 154.5t60.5 247.5q7 33 18 79h88l8 32h-89z" />
    <glyph glyph-name="quotedblbase" unicode="&#x201e;" horiz-adv-x="556" 
d="M31 -126q25 9 49 24.5t42 35.5q43 47 43 99q0 24 -14.5 39.5t-35.5 15.5t-35.5 -14.5t-14.5 -35.5q0 -14 4.5 -22t14.5 -16q7 -7 11 -13t4 -16q0 -24 -24.5 -46.5t-52.5 -34.5zM254 -126q25 9 49 24.5t42 35.5q43 47 43 99q0 24 -14.5 39.5t-35.5 15.5t-35.5 -14.5
t-14.5 -35.5q0 -14 4.5 -22t14.5 -16q7 -7 11 -13t4 -16q0 -24 -24.5 -46.5t-52.5 -34.5z" />
    <glyph glyph-name="ellipsis" unicode="&#x2026;" horiz-adv-x="889" 
d="M101 -12q21 0 35.5 14.5t14.5 35.5t-14.5 35.5t-35.5 14.5t-35.5 -14.5t-14.5 -35.5t14.5 -35.5t35.5 -14.5zM397 -12q21 0 35.5 14.5t14.5 35.5t-14.5 35.5t-35.5 14.5t-35.5 -14.5t-14.5 -35.5t14.5 -35.5t35.5 -14.5zM693 -12q21 0 35.5 14.5t14.5 35.5t-14.5 35.5
t-35.5 14.5t-35.5 -14.5t-14.5 -35.5t14.5 -35.5t35.5 -14.5z" />
    <glyph glyph-name="dagger" unicode="&#x2020;" 
d="M135 -196l37 108l34 103l25.5 75.5t19.5 51l30.5 71l58.5 132.5q-19 31 -19 66q0 16 6 48q26 0 78 -22q48 -21 71 -21q20 0 35.5 12t15.5 31t-15 30.5t-35 11.5q-23 0 -61 -13q-22 -8 -41 -12.5t-43 -4.5q4 19 15 36.5t30 41.5q23 32 34.5 53t11.5 44q0 20 -11 34t-31 14
q-33 0 -46.5 -26.5t-13.5 -81.5q0 -48 -1 -71t-7 -44q-17 0 -36 4.5t-45 11.5q-47 14 -66 14q-21 0 -37 -11t-16 -31t15 -31.5t36 -11.5q17 0 63 19q27 12 45.5 18t35.5 6q-22 -69 -74 -114q0 -55 -10.5 -124t-28.5 -142.5t-38 -141l-41 -133.5h19z" />
    <glyph glyph-name="daggerdbl" unicode="&#x2021;" 
d="M242 162q0 26 7 56t20 59.5t31 54t38 39.5q-18 29 -18 57q0 18 8 50q23 0 43 -4t44 -12q33 -10 48 -10q16 0 28 10.5t12 25.5q0 14 -12 25t-26 11q-18 0 -58 -13q-49 -15 -74 -15q7 20 36 65q21 34 32 55.5t11 40.5q0 14 -9.5 25.5t-23.5 11.5q-25 0 -38.5 -23.5
t-13.5 -80.5q0 -54 -12 -94q-31 0 -82 16q-38 12 -54 12t-28 -10.5t-12 -25.5t11.5 -25.5t26.5 -10.5q17 0 51 11q23 7 41.5 11t39.5 4q-15 -38 -31 -64t-41 -43q10 -26 10 -55q0 -26 -7 -56t-20 -59.5t-30.5 -54t-38.5 -39.5q18 -28 18 -57q0 -18 -8 -50q-23 0 -42.5 4
t-44.5 12q-33 10 -48 10q-16 0 -28 -10.5t-12 -25.5q0 -14 12 -25t26 -11q18 0 58 13q49 15 74 15q-7 -20 -36 -65q-21 -34 -32 -55.5t-11 -40.5q0 -14 9.5 -25.5t23.5 -11.5q25 0 38.5 23.5t13.5 80.5q0 54 12 94q31 0 82 -16q38 -12 54 -12t28 10.5t12 25.5t-11.5 25.5
t-26.5 10.5q-17 0 -50 -11q-24 -7 -42.5 -11t-39.5 -4q15 38 31 64t41 43q-10 26 -10 55z" />
    <glyph glyph-name="circumflex" unicode="&#x2c6;" horiz-adv-x="333" 
d="M349 666h-73l-152 -154h13l156 99l82 -99h10z" />
    <glyph glyph-name="perthousand" unicode="&#x2030;" horiz-adv-x="1000" 
d="M876 342q-39 0 -74 -20t-61 -54t-40.5 -73.5t-14.5 -77.5q0 -54 33 -91.5t86 -37.5q31 0 64 17t60 47.5t43.5 70.5t16.5 83q0 63 -35 99.5t-78 36.5zM876 322q28 0 39.5 -19.5t11.5 -46.5q0 -24 -10 -66.5t-27.5 -84t-41.5 -69.5t-51 -28q-23 0 -36 18t-13 42
q0 27 9.5 70t27 85.5t41.5 70.5t50 28zM535 342q-39 0 -74 -20t-61 -54t-40.5 -73.5t-14.5 -77.5q0 -54 33 -91.5t86 -37.5q31 0 64 17t60 47.5t43.5 70.5t16.5 83q0 63 -35 99.5t-78 36.5zM535 322q28 0 39.5 -19.5t11.5 -46.5q0 -24 -10 -66.5t-27.5 -84t-41.5 -69.5
t-51 -28q-23 0 -36 18t-13 42q0 27 9.5 70t27 85.5t41.5 70.5t50 28zM254 674q-39 0 -74 -20t-61 -54t-40.5 -73.5t-14.5 -77.5q0 -54 33 -91.5t86 -37.5q31 0 64 17t60 47.5t43.5 70.5t16.5 83q0 63 -35 99.5t-78 36.5zM254 654q28 0 39.5 -19.5t11.5 -46.5
q0 -24 -10 -66.5t-27.5 -84t-41.5 -69.5t-51 -28q-23 0 -36 18t-13 42q0 27 9.5 70t27 85.5t41.5 70.5t50 28zM649 677h-42l-537 -692h42z" />
    <glyph glyph-name="Scaron" unicode="&#x160;" 
d="M310 698h73l152 154h-13l-156 -99l-82 99h-10zM6 -15h18q7 17 19 28t28 11q19 0 59 -15q29 -12 52.5 -18t53.5 -6q43 0 81.5 14t68.5 40t46.5 63t16.5 81q0 55 -31.5 98t-92.5 100q-54 51 -80 85.5t-26 74.5q0 44 34.5 72.5t77.5 28.5q65 0 105 -38t40 -103q0 -15 -4 -41
v-3h18l51 220h-18l-3 -5q-12 -18 -21 -26t-26 -8q-8 0 -38 12q-33 13 -59 20t-54 7q-36 0 -69.5 -11.5t-60 -33.5t-41.5 -52.5t-15 -67.5q0 -52 29.5 -94t87.5 -100q54 -54 80 -90.5t26 -78.5q0 -54 -36.5 -91.5t-92.5 -37.5q-70 0 -113 42t-43 112q0 25 5 57h-18z" />
    <glyph glyph-name="guilsinglleft" unicode="&#x2039;" horiz-adv-x="333" 
d="M311 449h-26l-229 -233l122 -231h21l-54 231z" />
    <glyph glyph-name="OE" unicode="&#x152;" horiz-adv-x="944" 
d="M461 165q-10 -35 -20.5 -58.5t-27.5 -41t-43 -27t-65 -9.5q-32 0 -60.5 8.5t-52 27.5t-37 51t-13.5 78q0 55 20 129t60.5 145.5t105 118t149.5 46.5q39 0 67 -17t28 -54q0 -12 -3.5 -27t-8.5 -33zM594 329h77q15 0 26.5 -1.5t23.5 -7t19.5 -18.5t7.5 -34q0 -18 -7 -50h18
l68 241h-18q-15 -35 -30.5 -54.5t-33.5 -28t-38.5 -10.5t-58.5 -2h-45l76 263h128q39 0 63.5 -10t36.5 -24t16 -28t4 -24q0 -18 -3 -39h18l42 160h-350q-29 0 -69 2q-9 1 -19 1q-36 3 -77 3q-78 0 -155 -38.5t-139.5 -104t-99 -145t-36.5 -156.5q0 -39 12.5 -79.5t40 -74.5
t72 -55t104.5 -21q17 0 49 1q28 2 37 2q50 3 134 3h351l63 184h-18q-28 -50 -56.5 -79.5t-60.5 -44.5t-70 -20t-96 -5q-50 0 -65 4.5t-15 26.5q0 9 3 20.5l8 29.5q1 4 2 7z" />
    <glyph glyph-name="quoteleft" unicode="&#x2018;" horiz-adv-x="333" 
d="M338 677q-25 -9 -49 -24.5t-42 -35.5q-43 -47 -43 -99q0 -24 14.5 -39.5t35.5 -15.5t35.5 14.5t14.5 35.5q0 14 -4.5 22t-14.5 16q-7 7 -11 13t-4 16q0 24 24.5 46.5t52.5 34.5z" />
    <glyph glyph-name="quoteright" unicode="&#x2019;" horiz-adv-x="333" 
d="M199 463q25 9 49 24.5t42 35.5q43 47 43 99q0 24 -14.5 39.5t-35.5 15.5t-35.5 -14.5t-14.5 -35.5q0 -14 4.5 -22t14.5 -16q7 -7 11 -13t4 -16q0 -24 -24.5 -46.5t-52.5 -34.5z" />
    <glyph glyph-name="quotedblleft" unicode="&#x201c;" horiz-adv-x="556" 
d="M561 677q-25 -9 -49 -24.5t-42 -35.5q-43 -47 -43 -99q0 -24 14.5 -39.5t35.5 -15.5t35.5 14.5t14.5 35.5q0 14 -4.5 22t-14.5 16q-7 7 -11 13t-4 16q0 24 24.5 46.5t52.5 34.5zM338 677q-25 -9 -49 -24.5t-42 -35.5q-43 -47 -43 -99q0 -24 14.5 -39.5t35.5 -15.5
t35.5 14.5t14.5 35.5q0 14 -4.5 22t-14.5 16q-7 7 -11 13t-4 16q0 24 24.5 46.5t52.5 34.5z" />
    <glyph glyph-name="quotedblright" unicode="&#x201d;" horiz-adv-x="556" 
d="M199 463q25 9 49 24.5t42 35.5q43 47 43 99q0 24 -14.5 39.5t-35.5 15.5t-35.5 -14.5t-14.5 -35.5q0 -14 4.5 -22t14.5 -16q7 -7 11 -13t4 -16q0 -24 -24.5 -46.5t-52.5 -34.5zM422 463q25 9 49 24.5t42 35.5q43 47 43 99q0 24 -14.5 39.5t-35.5 15.5t-35.5 -14.5
t-14.5 -35.5q0 -14 4.5 -22t14.5 -16q7 -7 11 -13t4 -16q0 -24 -24.5 -46.5t-52.5 -34.5z" />
    <glyph glyph-name="bullet" unicode="&#x2022;" horiz-adv-x="350" 
d="M75 331q0 -51 36 -87t87 -36t87 36t36 87t-36 87t-87 36t-87 -36t-36 -87z" />
    <glyph glyph-name="endash" unicode="&#x2013;" 
d="M509 222v35h-518v-35h518z" />
    <glyph glyph-name="emdash" unicode="&#x2014;" horiz-adv-x="889" 
d="M898 222v35h-907v-35h907z" />
    <glyph glyph-name="tilde" unicode="&#x2dc;" horiz-adv-x="333" 
d="M111 524q4 29 14.5 48.5t32.5 19.5q13 0 27.5 -7.5t37.5 -22.5l6 -4q25 -16 45 -25t41 -9q48 0 70.5 37t22.5 91h-15q-4 -29 -14 -48.5t-33 -19.5q-13 0 -27.5 7.5t-37.5 22.5l-6 4q-24 16 -44.5 25t-41.5 9q-48 0 -70.5 -37t-22.5 -91h15z" />
    <glyph glyph-name="trademark" unicode="&#x2122;" horiz-adv-x="980" 
d="M88 662l-10 -98h17q8 46 32.5 57t78.5 11h20v-271q0 -44 -9 -59.5t-49 -15.5v-18h197v18q-40 0 -49 15.5t-9 59.5v271h19q55 0 79.5 -11t31.5 -57h17l-10 98h-356zM628 662h-142v-18q40 0 49 -15.5t9 -59.5v-208q0 -44 -9 -59.5t-49 -15.5v-18h146v18q-40 0 -49 15.5
t-9 59.5v222h2l149 -315h16l149 320h2v-227q0 -44 -9 -59.5t-49 -15.5v-18h197v18q-40 0 -49 15.5t-9 59.5v208q0 44 9 59.5t49 15.5v18h-140l-129 -277z" />
    <glyph glyph-name="scaron" unicode="&#x161;" horiz-adv-x="389" 
d="M199 523h73l152 154h-13l-156 -99l-82 99h-10zM365 442h-18q-13 -23 -36 -23q-6 0 -29 8q-21 7 -36 11t-30 4q-49 0 -85.5 -31.5t-36.5 -80.5q0 -33 17.5 -62t52.5 -70q32 -38 48 -64t16 -53q0 -31 -23.5 -50t-55.5 -19q-58 0 -83 37t-25 98h-18l-30 -159h18
q4 10 13.5 16.5t20.5 6.5q8 0 26 -7q19 -7 37 -11.5t44 -4.5t52.5 9.5t48 26.5t34 41t12.5 51q0 40 -21 73.5t-61 77.5q-29 33 -43 53t-14 39q0 26 19 42.5t46 16.5q46 0 69 -37t23 -89h18z" />
    <glyph glyph-name="guilsinglright" unicode="&#x203a;" horiz-adv-x="333" 
d="M22 -15h26l229 233l-122 231h-21l54 -231z" />
    <glyph glyph-name="oe" unicode="&#x153;" horiz-adv-x="667" 
d="M602 117q-41 -36 -72 -55.5t-62 -19.5q-39 0 -60.5 29.5t-21.5 69.5q0 16 4 42q36 3 81 18.5t86 41t67 59t26 71.5q0 34 -22.5 51.5t-56.5 17.5q-46 0 -87 -23.5t-75 -63.5q-6 40 -40.5 63.5t-76.5 23.5q-46 0 -93.5 -26.5t-86 -71.5t-61.5 -100t-23 -108q0 -17 6 -41
t21 -49t42.5 -41.5t68.5 -16.5q45 0 87 24t72 62q6 -40 31 -63t65 -23q24 0 51.5 10.5t54 27.5t49.5 37.5t39 39.5zM105 86q0 47 15.5 104.5t42 110t58 85t61.5 32.5q32 0 50.5 -23t18.5 -56q0 -32 -14.5 -87t-39.5 -110.5t-58 -92.5t-68 -37q-32 0 -49 20.5t-17 53.5z
M395 207q13 54 32.5 94.5t41.5 66t43 38t37 12.5q19 0 28.5 -13t9.5 -32q0 -31 -18 -59.5t-47.5 -51t-63 -37t-63.5 -18.5z" />
    <glyph glyph-name="Ydieresis" unicode="&#x178;" horiz-adv-x="556" 
d="M335 720q22 0 37.5 15.5t15.5 37.5t-15.5 37.5t-37.5 15.5t-37.5 -15.5t-15.5 -37.5t15.5 -37.5t37.5 -15.5zM507 720q22 0 37.5 15.5t15.5 37.5t-15.5 37.5t-37.5 15.5t-37.5 -15.5t-15.5 -37.5t15.5 -37.5t37.5 -15.5zM352 352l-51 168l-2 7q-8 25 -12 42t-4 31
q0 28 17 36t60 8l5 18h-243l-5 -18q38 0 55.5 -18t30.5 -60l75 -244l-66 -215q-9 -29 -17 -45.5t-19.5 -26t-30 -13.5t-48.5 -4l-5 -18h278l5 18q-17 0 -29 1t-24.5 5t-20.5 12.5t-8 23.5q0 16 5.5 39t14.5 51q1 2 2 6l45 152l169 235q41 57 70 79t65 22l5 18h-208l-5 -18
q32 0 51 -5.5t19 -22.5q0 -13 -15 -37.5t-35 -52.5q-4 -5 -6 -8z" />
    <glyph glyph-name="exclamdown" unicode="&#xa1;" horiz-adv-x="389" 
d="M232 300l-92 -257q-1 -4 -9 -24l-20 -56t-17 -50t-16 -54t-6 -36q0 -15 8.5 -27t22.5 -12q17 0 29 10.5t19 26.5t11 31t7 36q18 103 33 179.5l36 176.5l12 56h-18zM265 376q21 0 35.5 14.5t14.5 35.5t-14.5 35.5t-35.5 14.5t-35.5 -14.5t-14.5 -35.5t14.5 -35.5
t35.5 -14.5z" />
    <glyph glyph-name="cent" unicode="&#xa2;" 
d="M197 41q-29 11 -44.5 38t-15.5 64q0 38 12.5 79.5t35 79.5t54.5 67t69 41zM338 418h16q16 0 32 -7t16 -21q0 -7 -13 -18q-11 -9 -16.5 -17.5t-5.5 -22.5q0 -15 10 -25t25 -10q24 0 38 22t14 48q0 39 -32.5 57t-76.5 18l58 194h-28l-59 -196q-45 -3 -91.5 -30t-85 -71.5
t-61 -98t-22.5 -107.5q0 -62 36 -102.5t90 -40.5l-52 -174h28l52 174q61 1 111 32t94 85l-14 12q-40 -42 -76 -64.5t-81 -22.5h-21z" />
    <glyph glyph-name="sterling" unicode="&#xa3;" 
d="M142 71q-8 -26 -23.5 -44.5t-38.5 -18.5q-13 0 -21.5 10.5t-8.5 23.5q0 19 14 31.5t33 12.5t45 -15zM281 362q8 30 20 89q15 72 26 107q13 39 29 64.5t44 25.5q16 0 22.5 -10.5t11.5 -29.5l1 -3q6 -25 16 -38.5t32 -13.5q18 0 29.5 13.5t11.5 32.5q0 36 -28.5 57
t-65.5 21q-57 0 -99 -29.5t-69 -76t-43.5 -98t-29.5 -111.5h-107l-12 -40h112q-9 -39 -14 -112q-5 -60 -11 -87l-35 3q-38 0 -68 -23t-30 -60q0 -26 17 -42t43 -16q27 0 49 18t40 46l4 -3q39 -31 67.5 -46t63.5 -15q52 0 91.5 30.5t62.5 80.5h-21q-13 -18 -32.5 -28.5
t-41.5 -10.5q-26 0 -46.5 6.5t-51.5 20.5q-38 18 -64 26q19 52 36.5 107t29.5 105h130l12 40h-132z" />
    <glyph glyph-name="currency" unicode="&#xa4;" 
d="M99 331q0 36 13.5 68t38 56.5t56.5 38t68 13.5t68 -13.5t56.5 -38t38 -56.5t13.5 -68t-13.5 -68t-38 -56.5t-56.5 -38t-68 -13.5t-68 13.5t-56.5 38t-38 56.5t-13.5 68zM138 166q28 -24 63 -37.5t74 -13.5q38 0 73.5 13.5t63.5 37.5l72 -72l28 28l-72 72q25 28 38 63.5
t13 73.5t-13 73.5t-38 63.5l72 72l-28 28l-72 -72q-28 25 -63.5 38t-73.5 13q-39 0 -74 -13t-63 -38l-72 72l-28 -28l72 -72q-51 -59 -51 -137q0 -38 13.5 -73.5t37.5 -63.5l-72 -72l28 -28z" />
    <glyph glyph-name="yen" unicode="&#xa5;" 
d="M434 482h136l10 32h-121q43 65 78 97.5t65 32.5l5 18h-188l-5 -18q23 0 43.5 -6t20.5 -22q0 -10 -13.5 -32.5t-34.5 -53.5q-8 -12 -11 -16h-167q-10 31 -15 52t-5 34q0 27 19.5 35.5t52.5 8.5l5 18h-217l-5 -18q32 0 49.5 -33t35.5 -97h-112l-10 -32h131l35 -113h-199
l-10 -32h218l6 -15l-66 -215q-9 -29 -17 -45.5t-19.5 -26t-30 -13.5t-48.5 -4l-5 -18h273l5 18q-17 0 -29 1t-24.5 5t-20.5 12.5t-8 23.5q0 16 5.5 39t14.5 51q1 2 2 6l45 152l20 29h199l10 32h-185zM300 351l-38 131h132z" />
    <glyph glyph-name="brokenbar" unicode="&#xa6;" horiz-adv-x="275" 
d="M117 88h-41l-87 -304h41zM290 694h-41l-87 -303h41z" />
    <glyph glyph-name="section" unicode="&#xa7;" 
d="M422 219q0 51 -21.5 88t-64.5 84q-41 45 -61.5 79t-20.5 80q0 43 32.5 75t74.5 32q22 0 36.5 -6.5t22.5 -18.5q11 -15 20 -51q5 -23 10.5 -33.5t19.5 -10.5q18 0 28.5 11.5t10.5 26.5q0 16 -10 34t-28 33.5t-42 25t-52 9.5q-35 0 -65.5 -13t-53 -37t-35 -55t-12.5 -67
q0 -38 14 -70t40 -65l-2 -2h2l-7 2q-19 5 -30 5q-56 0 -90.5 -35t-34.5 -91q0 -47 21.5 -84t63.5 -86q41 -48 61.5 -83t20.5 -79q0 -46 -33 -78t-77 -32q-24 0 -39.5 7t-24.5 18.5t-13.5 24t-10.5 32.5q-7 28 -15 41t-27 13q-14 0 -23 -13t-9 -27q0 -27 13 -48.5t35 -36.5
t48 -23t51 -8q34 0 64.5 13t54 36.5t36.5 54t13 64.5q0 42 -15 74.5t-44 70.5l2 2q26 -11 45 -11q53 0 87 37t34 91zM373 181q0 -28 -20.5 -50t-48.5 -22t-56.5 16.5t-51.5 43t-36.5 57.5t-13.5 59q0 30 22.5 51t52.5 21t57.5 -16t49 -42.5t33.5 -57.5t12 -60z" />
    <glyph glyph-name="dieresis" unicode="&#xa8;" horiz-adv-x="333" 
d="M185 536q22 0 37.5 15.5t15.5 37.5t-15.5 37.5t-37.5 15.5t-37.5 -15.5t-15.5 -37.5t15.5 -37.5t37.5 -15.5zM357 536q22 0 37.5 15.5t15.5 37.5t-15.5 37.5t-37.5 15.5t-37.5 -15.5t-15.5 -37.5t15.5 -37.5t37.5 -15.5z" />
    <glyph glyph-name="copyright" unicode="&#xa9;" horiz-adv-x="760" 
d="M577 554h-19q-5 -11 -9.5 -16.5t-14.5 -5.5q-6 0 -22 6q-10 3 -16 5q-31 11 -69 11q-50 0 -94.5 -16.5t-78.5 -47t-53 -72.5t-19 -93q0 -45 18 -84.5t49 -68.5t72 -45t85 -16q124 0 190 99l-19 10q-24 -37 -65 -58t-86 -21q-44 0 -75.5 16t-51 44t-28 63.5t-8.5 77.5
q0 81 40 135.5t119 54.5q54 0 93.5 -31t52.5 -84h19zM752 331q0 70 -26.5 133.5t-74.5 111.5t-111.5 74.5t-133.5 26.5t-133.5 -26.5t-111.5 -74.5t-74.5 -111.5t-26.5 -133.5t26.5 -133.5t74.5 -111.5t111.5 -74.5t133.5 -26.5t133.5 26.5t111.5 74.5t74.5 111.5
t26.5 133.5zM722 331q0 -65 -24.5 -122.5t-68 -101t-101 -68t-122.5 -24.5q-64 0 -122 24.5t-101.5 68t-68 101.5t-24.5 122t24.5 122t68.5 101.5t101.5 68t121.5 24.5q65 0 122.5 -24.5t101 -68t68 -101t24.5 -122.5z" />
    <glyph glyph-name="ordfeminine" unicode="&#xaa;" horiz-adv-x="276" 
d="M347 677l-65 -3l-5 -19q-18 22 -43 22q-32 0 -63 -21.5t-55.5 -55t-38.5 -71t-14 -67.5q0 -38 16.5 -57t42.5 -19q35 0 62 25.5t55 66.5l1 1l2 -2q-9 -29 -9 -54q0 -16 7 -26.5t23 -10.5q24 0 49.5 24.5t40.5 51.5l-15 9q-7 -12 -15.5 -23.5t-15.5 -11.5q-9 0 -9 10
q0 4 3 16q2 8 2 11zM268 619q0 -31 -11.5 -64t-29 -61t-36.5 -45t-33 -17q-16 0 -21 9.5t-5 25.5q0 32 9.5 66t24.5 63t33.5 46t35.5 17q16 0 24.5 -12t8.5 -28z" />
    <glyph glyph-name="guillemotleft" unicode="&#xab;" 
d="M291 449h-26l-229 -233l122 -231h21l-54 231zM477 449h-26l-229 -233l122 -231h21l-54 231z" />
    <glyph glyph-name="logicalnot" unicode="&#xac;" horiz-adv-x="675" 
d="M100 432v-40h486v-160h40v200h-526z" />
    <glyph glyph-name="minus" unicode="&#xad;" horiz-adv-x="675" 
d="M626 312v40h-526v-40h526z" />
    <glyph glyph-name="minus" unicode="&#x2212;" horiz-adv-x="675" 
d="M626 312v40h-526v-40h526z" />
    <glyph glyph-name="registered" unicode="&#xae;" horiz-adv-x="760" 
d="M273 221q0 -48 -7.5 -63t-43.5 -15v-18h179v18q-28 0 -43 6t-15 30v143h37l144 -197h94v18q-22 0 -38 14t-32 38l-95 135q49 12 79.5 38t30.5 72q0 55 -45 81.5t-114 26.5h-177v-18q32 0 39 -16t7 -60v-233zM343 344v175q20 7 42 7q41 0 69 -26.5t28 -67.5
q0 -26 -11.5 -43.5t-30.5 -27t-41.5 -13.5t-46.5 -4h-9zM752 331q0 70 -26.5 133.5t-74.5 111.5t-111.5 74.5t-133.5 26.5t-133.5 -26.5t-111.5 -74.5t-74.5 -111.5t-26.5 -133.5t26.5 -133.5t74.5 -111.5t111.5 -74.5t133.5 -26.5t133.5 26.5t111.5 74.5t74.5 111.5
t26.5 133.5zM722 331q0 -65 -24.5 -122.5t-68 -101t-101 -68t-122.5 -24.5q-64 0 -122 24.5t-101.5 68t-68 101.5t-24.5 122t24.5 122t68.5 101.5t101.5 68t121.5 24.5q65 0 122.5 -24.5t101 -68t68 -101t24.5 -122.5z" />
    <glyph glyph-name="macron" unicode="&#xaf;" horiz-adv-x="333" 
d="M137 620l-17 -63h293l17 63h-293z" />
    <glyph glyph-name="degree" unicode="&#xb0;" horiz-adv-x="400" 
d="M396 526q0 30 -12 57.5t-33 47.5t-48.5 31.5t-57.5 11.5t-57.5 -11.5t-48 -31.5t-32.5 -47t-12 -57q0 -64 44.5 -108t108.5 -44q31 0 58 12t47 33t31.5 48.5t11.5 57.5zM354 526q0 -45 -31 -78t-76 -33q-46 0 -78 32.5t-32 79.5q0 44 31.5 75.5t75.5 31.5
q45 0 77.5 -31.5t32.5 -76.5z" />
    <glyph glyph-name="plusminus" unicode="&#xb1;" horiz-adv-x="675" 
d="M100 69h526v40h-243v203h243v40h-243v243h-40v-243h-243v-40h243v-203h-243v-40z" />
    <glyph glyph-name="twosuperior" unicode="&#xb2;" horiz-adv-x="300" 
d="M258 323l35 75h-23q-8 -20 -25 -25.5t-44 -5.5h-70l2 2l136 115q22 19 42.5 50t20.5 58q0 37 -27.5 59.5t-65.5 22.5q-36 0 -66.5 -19.5t-44.5 -52.5l19 -7q23 35 65 35q26 0 43 -15t17 -41q0 -33 -23 -64t-57 -59l-139 -115v-13h205z" />
    <glyph glyph-name="threesuperior" unicode="&#xb3;" horiz-adv-x="300" 
d="M134 508q45 -2 73 -22.5t28 -60.5q0 -24 -15 -50t-36 -26q-16 0 -26.5 3.5t-24.5 9.5q-23 11 -38 11q-12 0 -22 -6.5t-10 -17.5q0 -10 8.5 -16.5t21 -9.5t25 -4.5t20.5 -1.5q28 0 56 9.5t51 27t37 42t14 53.5q0 26 -14 46.5t-39 30.5v2q31 10 56 31.5t25 49.5
q0 30 -24.5 47.5t-56.5 17.5q-65 0 -98 -61v-2l20 -5q27 36 54 36q19 0 31.5 -12t12.5 -31t-13 -33.5t-33.5 -23.5t-41 -13.5t-41.5 -7.5v-13z" />
    <glyph glyph-name="acute" unicode="&#xb4;" horiz-adv-x="333" 
d="M360 684h-110l-52 -167h18z" />
    <glyph glyph-name="mu" unicode="&#xb5;" 
d="M140 430l-112 -389q-9 -31 -21.5 -60t-32.5 -69q-18 -38 -26 -57t-8 -32q0 -16 9.5 -27t25.5 -11q29 0 40.5 26.5t16.5 82.5q4 45 10.5 80t16.5 67q22 -53 81 -53q21 0 44 10t43.5 26t38 35.5t28.5 37.5l2 -2q0 -2 -1 -9q-2 -16 -2 -24q0 -36 20 -55t44 -19q45 0 78 34.5
t46 82.5h-18l-4 -8q-15 -28 -29 -44.5t-34 -16.5q-15 0 -21.5 12t-6.5 27q0 20 11 57l1 3l87 295h-75l-60 -204q-25 -85 -69 -137.5t-91 -52.5q-26 0 -38 15t-12 41q0 20 12 61q5 13 6 19l75 258h-75z" />
    <glyph glyph-name="paragraph" unicode="&#xb6;" horiz-adv-x="523" 
d="M537 635h65l8 27h-230q-86 0 -144.5 -26.5t-90.5 -65.5t-45 -78.5t-13 -68.5q0 -40 16 -66t43 -39.5t59.5 -18.5t71.5 -5l-146 -510h36l244 851h91l-244 -851h35z" />
    <glyph glyph-name="periodcentered" unicode="&#xb7;" horiz-adv-x="250" 
d="M155 282q21 0 35.5 14.5t14.5 35.5t-14.5 35.5t-35.5 14.5t-35.5 -14.5t-14.5 -35.5t14.5 -35.5t35.5 -14.5z" />
    <glyph glyph-name="periodcentered" unicode="&#x2219;" horiz-adv-x="250" 
d="M155 282q21 0 35.5 14.5t14.5 35.5t-14.5 35.5t-35.5 14.5t-35.5 -14.5t-14.5 -35.5t14.5 -35.5t35.5 -14.5z" />
    <glyph glyph-name="cedilla" unicode="&#xb8;" horiz-adv-x="333" 
d="M146 10h-40l-71 -94q28 0 48 -9t20 -33q0 -30 -28 -44t-63 -14q-21 0 -53 7l-8 -18q56 -13 91 -13q22 0 48.5 6t50 18t39 30.5t15.5 42.5q0 32 -23 54t-57 26z" />
    <glyph glyph-name="onesuperior" unicode="&#xb9;" horiz-adv-x="300" 
d="M303 674h-18l-106 -24l7 -16q15 5 26 5q15 0 15 -16q0 -9 -5 -22l-73 -220q-10 -29 -22 -35.5t-43 -6.5l-5 -16h160l5 16q-24 0 -33.5 3t-9.5 14q0 8 3.5 19.5t8.5 25.5z" />
    <glyph glyph-name="ordmasculine" unicode="&#xba;" horiz-adv-x="310" 
d="M371 567q0 50 -27 80t-77 30q-33 0 -63.5 -16t-53.5 -42.5t-36 -59t-13 -64.5q0 -44 27.5 -76.5t70.5 -32.5q32 0 63 16t55.5 42t39 58.5t14.5 64.5zM306 607q0 -22 -6.5 -56.5t-19 -68t-31.5 -56t-43 -22.5q-21 0 -30.5 15t-9.5 37t6.5 56t19.5 68t32 56.5t42 22.5
q21 0 30.5 -15.5t9.5 -36.5z" />
    <glyph glyph-name="guillemotright" unicode="&#xbb;" 
d="M209 -15h26l229 233l-122 231h-21l54 -231zM23 -15h26l229 233l-122 231h-21l54 -231z" />
    <glyph glyph-name="onequarter" unicode="&#xbc;" horiz-adv-x="750" 
d="M703 344h-32l-237 -221l-13 -39h144l-30 -91h51l30 91h47l13 35h-49zM576 119h-103l148 142h2zM648 674h-44l-457 -701h44zM303 674h-18l-106 -24l7 -16q15 5 26 5q15 0 15 -16q0 -9 -5 -22l-73 -220q-10 -29 -22 -35.5t-43 -6.5l-5 -16h160l5 16q-24 0 -33.5 3t-9.5 14
q0 8 3.5 19.5t8.5 25.5z" />
    <glyph glyph-name="onehalf" unicode="&#xbd;" horiz-adv-x="750" 
d="M625 674h-44l-457 -701h44zM615 0l35 75h-23q-8 -20 -25 -25.5t-44 -5.5h-70l2 2l136 115q22 19 42.5 50t20.5 58q0 37 -27.5 59.5t-65.5 22.5q-36 0 -66.5 -19.5t-44.5 -52.5l19 -7q23 35 65 35q26 0 43 -15t17 -41q0 -33 -23 -64t-57 -59l-139 -115v-13h205zM303 674
h-18l-106 -24l7 -16q15 5 26 5q15 0 15 -16q0 -9 -5 -22l-73 -220q-10 -29 -22 -35.5t-43 -6.5l-5 -16h160l5 16q-24 0 -33.5 3t-9.5 14q0 8 3.5 19.5t8.5 25.5z" />
    <glyph glyph-name="threequarters" unicode="&#xbe;" horiz-adv-x="750" 
d="M642 674h-44l-457 -701h44zM134 508q45 -2 73 -22.5t28 -60.5q0 -24 -15 -50t-36 -26q-16 0 -26.5 3.5t-24.5 9.5q-23 11 -38 11q-12 0 -22 -6.5t-10 -17.5q0 -10 8.5 -16.5t21 -9.5t25 -4.5t20.5 -1.5q28 0 56 9.5t51 27t37 42t14 53.5q0 26 -14 46.5t-39 30.5v2
q31 10 56 31.5t25 49.5q0 30 -24.5 47.5t-56.5 17.5q-65 0 -98 -61v-2l20 -5q27 36 54 36q19 0 31.5 -12t12.5 -31t-13 -33.5t-33.5 -23.5t-41 -13.5t-41.5 -7.5v-13zM703 344h-32l-237 -221l-13 -39h144l-30 -91h51l30 91h47l13 35h-49zM576 119h-103l148 142h2z" />
    <glyph glyph-name="questiondown" unicode="&#xbf;" 
d="M319 298q-5 -35 -19.5 -64.5t-35.5 -53.5t-42.5 -41.5t-58.5 -44.5q-65 -48 -96 -83.5t-31 -87.5q0 -22 10 -46t31 -45.5t53 -34.5t74 -13q26 0 53.5 7.5t50.5 21.5t37 35.5t14 49.5q0 17 -11.5 30t-28.5 13t-29 -10.5t-12 -27.5q0 -11 8 -30q8 -16 8 -25
q0 -11 -8.5 -19.5t-22.5 -13.5q-23 -9 -48 -9q-43 0 -72 25t-29 67q0 44 24 81t75 92q59 64 90 113.5t34 113.5h-18zM348 376q21 0 35.5 14.5t14.5 35.5t-14.5 35.5t-35.5 14.5t-35.5 -14.5t-14.5 -35.5t14.5 -35.5t35.5 -14.5z" />
    <glyph glyph-name="Agrave" unicode="&#xc0;" horiz-adv-x="611" 
d="M523 868h-110l144 -167h18zM387 218l-9 -102q-4 -54 -20 -76t-73 -22l-5 -18h260l5 18q-44 0 -64.5 12t-20.5 45q0 23 4 63l1 17l49 522h-18l-398 -542l-11 -14q-35 -50 -64 -76.5t-68 -26.5l-5 -18h196l5 18q-29 0 -42 10.5t-13 29.5q0 14 9 30.5t25 37.5q5 6 8 11
l60 81h189zM414 512h2l-25 -259h-166z" />
    <glyph glyph-name="Aacute" unicode="&#xc1;" horiz-adv-x="611" 
d="M610 868h-110l-52 -167h18zM387 218l-9 -102q-4 -54 -20 -76t-73 -22l-5 -18h260l5 18q-44 0 -64.5 12t-20.5 45q0 23 4 63l1 17l49 522h-18l-398 -542l-11 -14q-35 -50 -64 -76.5t-68 -26.5l-5 -18h196l5 18q-29 0 -42 10.5t-13 29.5q0 14 9 30.5t25 37.5q5 6 8 11
l60 81h189zM414 512h2l-25 -259h-166z" />
    <glyph glyph-name="Acircumflex" unicode="&#xc2;" horiz-adv-x="611" 
d="M583 852h-73l-152 -154h13l156 99l82 -99h10zM387 218l-9 -102q-4 -54 -20 -76t-73 -22l-5 -18h260l5 18q-44 0 -64.5 12t-20.5 45q0 23 4 63l1 17l49 522h-18l-398 -542l-11 -14q-35 -50 -64 -76.5t-68 -26.5l-5 -18h196l5 18q-29 0 -42 10.5t-13 29.5q0 14 9 30.5
t25 37.5q5 6 8 11l60 81h189zM414 512h2l-25 -259h-166z" />
    <glyph glyph-name="Atilde" unicode="&#xc3;" horiz-adv-x="611" 
d="M369 706q4 29 14.5 48.5t32.5 19.5q13 0 27.5 -7.5t37.5 -22.5l6 -4q25 -16 45 -25t41 -9q48 0 70.5 37t22.5 91h-15q-4 -29 -14 -48.5t-33 -19.5q-13 0 -27.5 7.5t-37.5 22.5l-6 4q-24 16 -44.5 25t-41.5 9q-48 0 -70.5 -37t-22.5 -91h15zM387 218l-9 -102
q-4 -54 -20 -76t-73 -22l-5 -18h260l5 18q-44 0 -64.5 12t-20.5 45q0 23 4 63l1 17l49 522h-18l-398 -542l-11 -14q-35 -50 -64 -76.5t-68 -26.5l-5 -18h196l5 18q-29 0 -42 10.5t-13 29.5q0 14 9 30.5t25 37.5q5 6 8 11l60 81h189zM414 512h2l-25 -259h-166z" />
    <glyph glyph-name="Adieresis" unicode="&#xc4;" horiz-adv-x="611" 
d="M442 720q22 0 37.5 15.5t15.5 37.5t-15.5 37.5t-37.5 15.5t-37.5 -15.5t-15.5 -37.5t15.5 -37.5t37.5 -15.5zM614 720q22 0 37.5 15.5t15.5 37.5t-15.5 37.5t-37.5 15.5t-37.5 -15.5t-15.5 -37.5t15.5 -37.5t37.5 -15.5zM387 218l-9 -102q-4 -54 -20 -76t-73 -22l-5 -18
h260l5 18q-44 0 -64.5 12t-20.5 45q0 23 4 63l1 17l49 522h-18l-398 -542l-11 -14q-35 -50 -64 -76.5t-68 -26.5l-5 -18h196l5 18q-29 0 -42 10.5t-13 29.5q0 14 9 30.5t25 37.5q5 6 8 11l60 81h189zM414 512h2l-25 -259h-166z" />
    <glyph glyph-name="Aring" unicode="&#xc5;" horiz-adv-x="611" 
d="M412 729q0 -38 27.5 -65.5t65.5 -27.5t65.5 27.5t27.5 65.5t-27.5 65.5t-65.5 27.5t-65.5 -27.5t-27.5 -65.5zM441 729q0 26 19 45t45 19t45 -19t19 -45t-19 -45t-45 -19t-45 19t-19 45zM387 218l-9 -102q-4 -54 -20 -76t-73 -22l-5 -18h260l5 18q-44 0 -64.5 12
t-20.5 45q0 23 4 63l1 17l49 522h-18l-398 -542l-11 -14q-35 -50 -64 -76.5t-68 -26.5l-5 -18h196l5 18q-29 0 -42 10.5t-13 29.5q0 14 9 30.5t25 37.5q5 6 8 11l60 81h189zM414 512h2l-25 -259h-166z" />
    <glyph glyph-name="AE" unicode="&#xc6;" horiz-adv-x="889" 
d="M424 238l-34 -114q-11 -39 -19.5 -58.5t-19.5 -30t-27 -14t-45 -3.5l-5 -18h486l63 184h-18q-29 -50 -57 -79.5t-60.5 -44.5t-71.5 -20t-99 -5q-31 0 -43 5t-12 26q0 9 3 20.5l8 29.5q1 4 2 7l60 206h71q15 0 26.5 -1.5t23.5 -7t19.5 -18.5t7.5 -34q0 -18 -7 -50h18
l68 241h-18q-15 -35 -30.5 -54.5t-33.5 -28t-38.5 -10.5t-58.5 -2h-39l76 263h132q32 0 52.5 -10t30.5 -24t13.5 -28t3.5 -24q0 -18 -3 -39h18l42 160h-484l-5 -18q24 0 38 -4.5t14 -21.5q0 -13 -10.5 -29t-25.5 -35q-5 -6 -8 -10l-332 -413q-50 -63 -80.5 -88t-63.5 -25
l-5 -18h197l5 18q-22 0 -38.5 8t-16.5 28q0 19 16.5 43t41.5 55l5 6l65 80h202zM435 273h-186l285 353l2 -2z" />
    <glyph glyph-name="Ccedilla" unicode="&#xc7;" horiz-adv-x="667" 
d="M361 10h-40l-71 -94q28 0 48 -9t20 -33q0 -30 -28 -44t-63 -14q-21 0 -53 7l-8 -18q56 -13 91 -13q22 0 48.5 6t50 18t39 30.5t15.5 42.5q0 32 -23 54t-57 26zM704 677h-18q-2 -2 -2 -3q-13 -15 -23 -22.5t-24 -7.5q-13 0 -37 9l-2 1q-31 12 -53 17.5t-51 5.5
q-83 0 -161 -34.5t-138 -94.5t-94 -137.5t-34 -160.5q0 -60 20 -109t56.5 -84t86.5 -53.5t109 -18.5q92 0 159 42t117 124h-23q-43 -61 -97 -92.5t-124 -31.5q-91 0 -146 59.5t-55 151.5q0 68 22 140t64.5 133t102 97.5t132.5 36.5q20 0 43 -4.5t46.5 -18.5t39.5 -43t16 -75
v-41h18z" />
    <glyph glyph-name="Egrave" unicode="&#xc8;" horiz-adv-x="611" 
d="M407 868h-110l144 -167h18zM92 124q-11 -39 -19.5 -58.5t-19.5 -30t-27 -14t-45 -3.5l-5 -18h511l63 184h-18q-29 -50 -57 -79.5t-60.5 -44.5t-71.5 -20t-99 -5q-50 0 -65 4.5t-15 26.5q0 9 3 20.5l8 29.5q1 4 2 7l60 206h81q15 0 26.5 -1.5t23.5 -7t19.5 -18.5t7.5 -34
q0 -18 -7 -50h18l68 241h-18q-15 -35 -30.5 -54.5t-33.5 -28t-38.5 -10.5t-58.5 -2h-49l76 263h132q39 0 63.5 -10t36.5 -24t16 -28t4 -24q0 -18 -3 -39h18l42 160h-477l-5 -18q39 0 57 -7.5t18 -31.5q0 -19 -4.5 -39t-12.5 -46v-1z" />
    <glyph glyph-name="Eacute" unicode="&#xc9;" horiz-adv-x="611" 
d="M501 868h-110l-52 -167h18zM92 124q-11 -39 -19.5 -58.5t-19.5 -30t-27 -14t-45 -3.5l-5 -18h511l63 184h-18q-29 -50 -57 -79.5t-60.5 -44.5t-71.5 -20t-99 -5q-50 0 -65 4.5t-15 26.5q0 9 3 20.5l8 29.5q1 4 2 7l60 206h81q15 0 26.5 -1.5t23.5 -7t19.5 -18.5t7.5 -34
q0 -18 -7 -50h18l68 241h-18q-15 -35 -30.5 -54.5t-33.5 -28t-38.5 -10.5t-58.5 -2h-49l76 263h132q39 0 63.5 -10t36.5 -24t16 -28t4 -24q0 -18 -3 -39h18l42 160h-477l-5 -18q39 0 57 -7.5t18 -31.5q0 -19 -4.5 -39t-12.5 -46v-1z" />
    <glyph glyph-name="Ecircumflex" unicode="&#xca;" horiz-adv-x="611" 
d="M512 852h-73l-152 -154h13l156 99l82 -99h10zM92 124q-11 -39 -19.5 -58.5t-19.5 -30t-27 -14t-45 -3.5l-5 -18h511l63 184h-18q-29 -50 -57 -79.5t-60.5 -44.5t-71.5 -20t-99 -5q-50 0 -65 4.5t-15 26.5q0 9 3 20.5l8 29.5q1 4 2 7l60 206h81q15 0 26.5 -1.5t23.5 -7
t19.5 -18.5t7.5 -34q0 -18 -7 -50h18l68 241h-18q-15 -35 -30.5 -54.5t-33.5 -28t-38.5 -10.5t-58.5 -2h-49l76 263h132q39 0 63.5 -10t36.5 -24t16 -28t4 -24q0 -18 -3 -39h18l42 160h-477l-5 -18q39 0 57 -7.5t18 -31.5q0 -19 -4.5 -39t-12.5 -46v-1z" />
    <glyph glyph-name="Edieresis" unicode="&#xcb;" horiz-adv-x="611" 
d="M324 720q22 0 37.5 15.5t15.5 37.5t-15.5 37.5t-37.5 15.5t-37.5 -15.5t-15.5 -37.5t15.5 -37.5t37.5 -15.5zM496 720q22 0 37.5 15.5t15.5 37.5t-15.5 37.5t-37.5 15.5t-37.5 -15.5t-15.5 -37.5t15.5 -37.5t37.5 -15.5zM92 124q-11 -39 -19.5 -58.5t-19.5 -30t-27 -14
t-45 -3.5l-5 -18h511l63 184h-18q-29 -50 -57 -79.5t-60.5 -44.5t-71.5 -20t-99 -5q-50 0 -65 4.5t-15 26.5q0 9 3 20.5l8 29.5q1 4 2 7l60 206h81q15 0 26.5 -1.5t23.5 -7t19.5 -18.5t7.5 -34q0 -18 -7 -50h18l68 241h-18q-15 -35 -30.5 -54.5t-33.5 -28t-38.5 -10.5
t-58.5 -2h-49l76 263h132q39 0 63.5 -10t36.5 -24t16 -28t4 -24q0 -18 -3 -39h18l42 160h-477l-5 -18q39 0 57 -7.5t18 -31.5q0 -19 -4.5 -39t-12.5 -46v-1z" />
    <glyph glyph-name="Igrave" unicode="&#xcc;" horiz-adv-x="333" 
d="M302 868h-110l144 -167h18zM303 556q10 39 29 63.5t58 24.5h21l5 18h-262l-5 -18q39 0 57 -7.5t18 -31.5q0 -19 -4.5 -39t-12.5 -46v-1l-115 -395q-11 -39 -19.5 -58.5t-19.5 -30t-27 -14t-45 -3.5l-5 -18h262l5 18q-37 0 -57.5 8.5t-20.5 34.5q0 9 4.5 26.5t11.5 41.5
q0 1 3 12z" />
    <glyph glyph-name="Iacute" unicode="&#xcd;" horiz-adv-x="333" 
d="M396 868h-110l-52 -167h18zM303 556q10 39 29 63.5t58 24.5h21l5 18h-262l-5 -18q39 0 57 -7.5t18 -31.5q0 -19 -4.5 -39t-12.5 -46v-1l-115 -395q-11 -39 -19.5 -58.5t-19.5 -30t-27 -14t-45 -3.5l-5 -18h262l5 18q-37 0 -57.5 8.5t-20.5 34.5q0 9 4.5 26.5t11.5 41.5
q0 1 3 12z" />
    <glyph glyph-name="Icircumflex" unicode="&#xce;" horiz-adv-x="333" 
d="M385 852h-73l-152 -154h13l156 99l82 -99h10zM303 556q10 39 29 63.5t58 24.5h21l5 18h-262l-5 -18q39 0 57 -7.5t18 -31.5q0 -19 -4.5 -39t-12.5 -46v-1l-115 -395q-11 -39 -19.5 -58.5t-19.5 -30t-27 -14t-45 -3.5l-5 -18h262l5 18q-37 0 -57.5 8.5t-20.5 34.5
q0 9 4.5 26.5t11.5 41.5q0 1 3 12z" />
    <glyph glyph-name="Idieresis" unicode="&#xcf;" horiz-adv-x="333" 
d="M209 716q22 0 37.5 15.5t15.5 37.5t-15.5 37.5t-37.5 15.5t-37.5 -15.5t-15.5 -37.5t15.5 -37.5t37.5 -15.5zM381 716q22 0 37.5 15.5t15.5 37.5t-15.5 37.5t-37.5 15.5t-37.5 -15.5t-15.5 -37.5t15.5 -37.5t37.5 -15.5zM303 556q10 39 29 63.5t58 24.5h21l5 18h-262
l-5 -18q39 0 57 -7.5t18 -31.5q0 -19 -4.5 -39t-12.5 -46v-1l-115 -395q-11 -39 -19.5 -58.5t-19.5 -30t-27 -14t-45 -3.5l-5 -18h262l5 18q-37 0 -57.5 8.5t-20.5 34.5q0 9 4.5 26.5t11.5 41.5q0 1 3 12z" />
    <glyph glyph-name="Eth" unicode="&#xd0;" horiz-adv-x="722" 
d="M92 124q-11 -39 -19.5 -58.5t-19.5 -30t-27 -14t-45 -3.5l-5 -18h280q123 0 211 37.5t141 96.5t76.5 124.5t23.5 123.5q0 52 -14 100t-49 89t-98.5 66t-156.5 25h-236l-5 -18q39 0 57 -7.5t18 -31.5q0 -19 -4.5 -39t-12.5 -46v-1l-45 -155h-90l-10 -35h90zM324 625
q30 2 56 2q114 0 169.5 -55t55.5 -169q0 -79 -21 -146.5t-65 -118t-113 -78.5t-162 -28q-42 0 -61 5t-19 25q0 7 4 23.5t10 37.5q5 17 5 18l55 188h178l10 35h-178z" />
    <glyph glyph-name="Ntilde" unicode="&#xd1;" horiz-adv-x="667" 
d="M331 706q4 29 14.5 48.5t32.5 19.5q13 0 27.5 -7.5t37.5 -22.5l6 -4q25 -16 45 -25t41 -9q48 0 70.5 37t22.5 91h-15q-4 -29 -14 -48.5t-33 -19.5q-13 0 -27.5 7.5t-37.5 22.5l-6 4q-24 16 -44.5 25t-41.5 9q-48 0 -70.5 -37t-22.5 -91h15zM287 662h-166l-5 -18
q39 0 64.5 -11t43.5 -42l-132 -467q-11 -39 -19.5 -58.5t-19.5 -30t-27 -14t-45 -3.5l-5 -18h212l5 18q-37 0 -57.5 8.5t-20.5 34.5q0 9 4.5 26.5t11.5 41.5q0 1 3 12l113 400h2l218 -556h18l163 571q10 39 29 63.5t58 24.5h21l5 18h-215l-5 -18q39 0 57 -7.5t18 -31.5
q0 -19 -4.5 -39t-12.5 -46v-1l-108 -374h-2z" />
    <glyph glyph-name="Ograve" unicode="&#xd2;" horiz-adv-x="722" 
d="M513 868h-110l144 -167h18zM487 677q-86 0 -164.5 -42t-138.5 -111t-93.5 -150t-33.5 -155q0 -33 10.5 -72t35.5 -76t70.5 -61.5t110.5 -24.5q103 0 185.5 46t137 118.5t82.5 152t28 143.5q0 41 -13 82t-41 75t-72 54.5t-104 20.5zM476 645q67 0 102.5 -50t35.5 -120
q0 -62 -23 -141.5t-64.5 -152t-100 -118.5t-125.5 -46q-36 0 -63 15t-44 40t-25.5 57t-8.5 66q0 62 22 139t63.5 149t100.5 117t130 45z" />
    <glyph glyph-name="Oacute" unicode="&#xd3;" horiz-adv-x="722" 
d="M610 868h-110l-52 -167h18zM487 677q-86 0 -164.5 -42t-138.5 -111t-93.5 -150t-33.5 -155q0 -33 10.5 -72t35.5 -76t70.5 -61.5t110.5 -24.5q103 0 185.5 46t137 118.5t82.5 152t28 143.5q0 41 -13 82t-41 75t-72 54.5t-104 20.5zM476 645q67 0 102.5 -50t35.5 -120
q0 -62 -23 -141.5t-64.5 -152t-100 -118.5t-125.5 -46q-36 0 -63 15t-44 40t-25.5 57t-8.5 66q0 62 22 139t63.5 149t100.5 117t130 45z" />
    <glyph glyph-name="Ocircumflex" unicode="&#xd4;" horiz-adv-x="722" 
d="M597 852h-73l-152 -154h13l156 99l82 -99h10zM487 677q-86 0 -164.5 -42t-138.5 -111t-93.5 -150t-33.5 -155q0 -33 10.5 -72t35.5 -76t70.5 -61.5t110.5 -24.5q103 0 185.5 46t137 118.5t82.5 152t28 143.5q0 41 -13 82t-41 75t-72 54.5t-104 20.5zM476 645
q67 0 102.5 -50t35.5 -120q0 -62 -23 -141.5t-64.5 -152t-100 -118.5t-125.5 -46q-36 0 -63 15t-44 40t-25.5 57t-8.5 66q0 62 22 139t63.5 149t100.5 117t130 45z" />
    <glyph glyph-name="Otilde" unicode="&#xd5;" horiz-adv-x="722" 
d="M359 706q4 29 14.5 48.5t32.5 19.5q13 0 27.5 -7.5t37.5 -22.5l6 -4q25 -16 45 -25t41 -9q48 0 70.5 37t22.5 91h-15q-4 -29 -14 -48.5t-33 -19.5q-13 0 -27.5 7.5t-37.5 22.5l-6 4q-24 16 -44.5 25t-41.5 9q-48 0 -70.5 -37t-22.5 -91h15zM487 677q-86 0 -164.5 -42
t-138.5 -111t-93.5 -150t-33.5 -155q0 -33 10.5 -72t35.5 -76t70.5 -61.5t110.5 -24.5q103 0 185.5 46t137 118.5t82.5 152t28 143.5q0 41 -13 82t-41 75t-72 54.5t-104 20.5zM476 645q67 0 102.5 -50t35.5 -120q0 -62 -23 -141.5t-64.5 -152t-100 -118.5t-125.5 -46
q-36 0 -63 15t-44 40t-25.5 57t-8.5 66q0 62 22 139t63.5 149t100.5 117t130 45z" />
    <glyph glyph-name="Odieresis" unicode="&#xd6;" horiz-adv-x="722" 
d="M433 720q22 0 37.5 15.5t15.5 37.5t-15.5 37.5t-37.5 15.5t-37.5 -15.5t-15.5 -37.5t15.5 -37.5t37.5 -15.5zM605 720q22 0 37.5 15.5t15.5 37.5t-15.5 37.5t-37.5 15.5t-37.5 -15.5t-15.5 -37.5t15.5 -37.5t37.5 -15.5zM487 677q-86 0 -164.5 -42t-138.5 -111
t-93.5 -150t-33.5 -155q0 -33 10.5 -72t35.5 -76t70.5 -61.5t110.5 -24.5q103 0 185.5 46t137 118.5t82.5 152t28 143.5q0 41 -13 82t-41 75t-72 54.5t-104 20.5zM476 645q67 0 102.5 -50t35.5 -120q0 -62 -23 -141.5t-64.5 -152t-100 -118.5t-125.5 -46q-36 0 -63 15
t-44 40t-25.5 57t-8.5 66q0 62 22 139t63.5 149t100.5 117t130 45z" />
    <glyph glyph-name="multiply" unicode="&#xd7;" horiz-adv-x="675" 
d="M160 159l28 -28l173 173l173 -173l28 28l-173 173l173 173l-28 28l-173 -173l-173 173l-28 -28l173 -173z" />
    <glyph glyph-name="Oslash" unicode="&#xd8;" horiz-adv-x="722" 
d="M168 129q-8 32 -8 66q0 62 22 139t63.5 149t100.5 117t130 45q42 0 71.5 -20.5t45.5 -54.5zM607 530q7 -25 7 -55q0 -62 -23 -141.5t-64.5 -152t-100 -118.5t-125.5 -46q-41 0 -70.5 20t-47.5 54zM643 622q-28 26 -67 40.5t-89 14.5q-86 0 -164.5 -42t-138.5 -111
t-93.5 -150t-33.5 -155q0 -35 12.5 -77t38.5 -76l-75 -78l27 -23l72 74q27 -25 65 -39.5t87 -14.5q103 0 185.5 46t137 118.5t82.5 152t28 143.5q0 40 -12 79t-36 70l66 68l-27 27z" />
    <glyph glyph-name="Ugrave" unicode="&#xd9;" horiz-adv-x="722" 
d="M513 868h-110l144 -167h18zM284 532l1 4q10 35 17 53t19 30.5t32.5 18.5t53.5 6l5 18h-279l-6 -18q43 0 63.5 -8t20.5 -35q0 -9 -2.5 -21.5t-8.5 -36.5t-14 -51l-31 -105l-24 -82.5t-13 -52t-7.5 -42t-2.5 -37.5q0 -31 13 -64t40.5 -61t70 -45.5t98.5 -17.5
q37 0 72.5 7.5t75 33t75.5 79t61 140.5l83 284q0 1 1 2q11 39 18 58t18 31.5t28.5 18t47.5 5.5l5 18h-210l-5 -18q30 0 52 -8.5t22 -33.5q0 -11 -4 -30.5t-15 -56.5l-58 -202l-1 -4q-19 -65 -35 -108.5t-42 -83t-66.5 -64t-97.5 -24.5q-69 0 -116 37.5t-47 104.5
q0 46 21 120z" />
    <glyph glyph-name="Uacute" unicode="&#xda;" horiz-adv-x="722" 
d="M610 868h-110l-52 -167h18zM284 532l1 4q10 35 17 53t19 30.5t32.5 18.5t53.5 6l5 18h-279l-6 -18q43 0 63.5 -8t20.5 -35q0 -9 -2.5 -21.5t-8.5 -36.5t-14 -51l-31 -105l-24 -82.5t-13 -52t-7.5 -42t-2.5 -37.5q0 -31 13 -64t40.5 -61t70 -45.5t98.5 -17.5
q37 0 72.5 7.5t75 33t75.5 79t61 140.5l83 284q0 1 1 2q11 39 18 58t18 31.5t28.5 18t47.5 5.5l5 18h-210l-5 -18q30 0 52 -8.5t22 -33.5q0 -11 -4 -30.5t-15 -56.5l-58 -202l-1 -4q-19 -65 -35 -108.5t-42 -83t-66.5 -64t-97.5 -24.5q-69 0 -116 37.5t-47 104.5
q0 46 21 120z" />
    <glyph glyph-name="Ucircumflex" unicode="&#xdb;" horiz-adv-x="722" 
d="M582 852h-73l-152 -154h13l156 99l82 -99h10zM284 532l1 4q10 35 17 53t19 30.5t32.5 18.5t53.5 6l5 18h-279l-6 -18q43 0 63.5 -8t20.5 -35q0 -9 -2.5 -21.5t-8.5 -36.5t-14 -51l-31 -105l-24 -82.5t-13 -52t-7.5 -42t-2.5 -37.5q0 -31 13 -64t40.5 -61t70 -45.5
t98.5 -17.5q37 0 72.5 7.5t75 33t75.5 79t61 140.5l83 284q0 1 1 2q11 39 18 58t18 31.5t28.5 18t47.5 5.5l5 18h-210l-5 -18q30 0 52 -8.5t22 -33.5q0 -11 -4 -30.5t-15 -56.5l-58 -202l-1 -4q-19 -65 -35 -108.5t-42 -83t-66.5 -64t-97.5 -24.5q-69 0 -116 37.5t-47 104.5
q0 46 21 120z" />
    <glyph glyph-name="Udieresis" unicode="&#xdc;" horiz-adv-x="722" 
d="M418 720q22 0 37.5 15.5t15.5 37.5t-15.5 37.5t-37.5 15.5t-37.5 -15.5t-15.5 -37.5t15.5 -37.5t37.5 -15.5zM590 720q22 0 37.5 15.5t15.5 37.5t-15.5 37.5t-37.5 15.5t-37.5 -15.5t-15.5 -37.5t15.5 -37.5t37.5 -15.5zM284 532l1 4q10 35 17 53t19 30.5t32.5 18.5
t53.5 6l5 18h-279l-6 -18q43 0 63.5 -8t20.5 -35q0 -9 -2.5 -21.5t-8.5 -36.5t-14 -51l-31 -105l-24 -82.5t-13 -52t-7.5 -42t-2.5 -37.5q0 -31 13 -64t40.5 -61t70 -45.5t98.5 -17.5q37 0 72.5 7.5t75 33t75.5 79t61 140.5l83 284q0 1 1 2q11 39 18 58t18 31.5t28.5 18
t47.5 5.5l5 18h-210l-5 -18q30 0 52 -8.5t22 -33.5q0 -11 -4 -30.5t-15 -56.5l-58 -202l-1 -4q-19 -65 -35 -108.5t-42 -83t-66.5 -64t-97.5 -24.5q-69 0 -116 37.5t-47 104.5q0 46 21 120z" />
    <glyph glyph-name="Yacute" unicode="&#xdd;" horiz-adv-x="556" 
d="M567 868h-110l-52 -167h18zM352 352l-51 168l-2 7q-8 25 -12 42t-4 31q0 28 17 36t60 8l5 18h-243l-5 -18q38 0 55.5 -18t30.5 -60l75 -244l-66 -215q-9 -29 -17 -45.5t-19.5 -26t-30 -13.5t-48.5 -4l-5 -18h278l5 18q-17 0 -29 1t-24.5 5t-20.5 12.5t-8 23.5
q0 16 5.5 39t14.5 51q1 2 2 6l45 152l169 235q41 57 70 79t65 22l5 18h-208l-5 -18q32 0 51 -5.5t19 -22.5q0 -13 -15 -37.5t-35 -52.5q-4 -5 -6 -8z" />
    <glyph glyph-name="Thorn" unicode="&#xde;" horiz-adv-x="611" 
d="M186 148h163q55 0 102 16t81.5 44.5t53 66t18.5 79.5q0 76 -49.5 117.5t-137.5 41.5h-126l12 43q10 39 29 63.5t58 24.5h21l5 18h-262l-5 -18q39 0 57 -7.5t18 -31.5q0 -19 -4.5 -39t-12.5 -46v-1l-115 -395q-11 -39 -19.5 -58.5t-19.5 -30t-27 -14t-45 -3.5l-5 -18h262
l5 18q-37 0 -57.5 8.5t-20.5 34.5q0 9 4.5 26.5t11.5 41.5q0 1 3 12zM280 478h115q16 0 33.5 -4t34 -16t27.5 -35.5t11 -59.5q0 -34 -9.5 -65.5t-33 -57.5t-65 -41.5t-102.5 -15.5h-95z" />
    <glyph glyph-name="germandbls" unicode="&#xdf;" 
d="M-12 -77q-13 -48 -34.5 -82.5t-48.5 -34.5q-6 0 -10.5 1.5t-4.5 6.5q0 3 5 12q6 11 6 18q0 10 -8 17t-18 7q-15 0 -25.5 -10t-10.5 -25q0 -22 16.5 -35.5t39.5 -13.5q28 0 54 15.5t47.5 41t37 54t24.5 54.5l30.5 93.5l29.5 95l30 101.5l34 116l35 121q31 105 59.5 149.5
t76.5 44.5q33 0 54 -24.5t21 -58.5q0 -18 -7.5 -47.5t-26.5 -60.5t-53.5 -52.5t-84.5 -21.5l-6 -22q51 -3 80.5 -40.5t29.5 -89.5q0 -44 -10.5 -87.5t-28.5 -79t-38.5 -56t-39.5 -20.5q-10 0 -17.5 6t-7.5 16q0 8 8 26q11 23 11 35q0 15 -9 25t-24 10q-21 0 -30.5 -16
t-9.5 -38q0 -35 20.5 -60.5t54.5 -25.5t70 20t67 55t49.5 80t18.5 93q0 62 -36.5 102t-97.5 52v2q76 8 132 52.5t56 117.5q0 61 -40.5 96.5t-101.5 35.5q-26 0 -53 -7t-55 -26.5t-53.5 -57.5t-42.5 -97z" />
    <glyph glyph-name="agrave" unicode="&#xe0;" 
d="M352 684h-110l144 -167h18zM469 442l-77 -12l-16 -54h-2q-7 31 -27.5 48.5t-52.5 17.5q-42 0 -90 -30t-90 -80t-68 -111t-26 -120q0 -43 23.5 -78t65.5 -35q29 0 56.5 12.5t51.5 33t44 43.5t40 50l2 -2q-2 -4 -5.5 -17t-7 -29t-5.5 -29.5t-2 -21.5q0 -40 42 -40
q37 0 71.5 30.5t63.5 73.5l-16 12q0 -1 -3 -4q-20 -27 -37 -45t-30 -18q-12 0 -12 15q0 10 6 31q1 7 2 10zM355 339q0 -57 -21 -110.5t-53.5 -94.5t-66.5 -64.5t-57 -23.5q-26 0 -41 22.5t-15 49.5q0 43 18 95t47 99t63 76.5t65 29.5q33 0 47 -21.5t14 -57.5z" />
    <glyph glyph-name="aacute" unicode="&#xe1;" 
d="M444 684h-110l-52 -167h18zM469 442l-77 -12l-16 -54h-2q-7 31 -27.5 48.5t-52.5 17.5q-42 0 -90 -30t-90 -80t-68 -111t-26 -120q0 -43 23.5 -78t65.5 -35q29 0 56.5 12.5t51.5 33t44 43.5t40 50l2 -2q-2 -4 -5.5 -17t-7 -29t-5.5 -29.5t-2 -21.5q0 -40 42 -40
q37 0 71.5 30.5t63.5 73.5l-16 12q0 -1 -3 -4q-20 -27 -37 -45t-30 -18q-12 0 -12 15q0 10 6 31q1 7 2 10zM355 339q0 -57 -21 -110.5t-53.5 -94.5t-66.5 -64.5t-57 -23.5q-26 0 -41 22.5t-15 49.5q0 43 18 95t47 99t63 76.5t65 29.5q33 0 47 -21.5t14 -57.5z" />
    <glyph glyph-name="acircumflex" unicode="&#xe2;" 
d="M433 677h-73l-152 -154h13l156 99l82 -99h10zM469 442l-77 -12l-16 -54h-2q-7 31 -27.5 48.5t-52.5 17.5q-42 0 -90 -30t-90 -80t-68 -111t-26 -120q0 -43 23.5 -78t65.5 -35q29 0 56.5 12.5t51.5 33t44 43.5t40 50l2 -2q-2 -4 -5.5 -17t-7 -29t-5.5 -29.5t-2 -21.5
q0 -40 42 -40q37 0 71.5 30.5t63.5 73.5l-16 12q0 -1 -3 -4q-20 -27 -37 -45t-30 -18q-12 0 -12 15q0 10 6 31q1 7 2 10zM355 339q0 -57 -21 -110.5t-53.5 -94.5t-66.5 -64.5t-57 -23.5q-26 0 -41 22.5t-15 49.5q0 43 18 95t47 99t63 76.5t65 29.5q33 0 47 -21.5t14 -57.5z
" />
    <glyph glyph-name="atilde" unicode="&#xe3;" 
d="M195 538q4 29 14.5 48.5t32.5 19.5q13 0 27.5 -7.5t37.5 -22.5l6 -4q25 -16 45 -25t41 -9q48 0 70.5 37t22.5 91h-15q-4 -29 -14 -48.5t-33 -19.5q-13 0 -27.5 7.5t-37.5 22.5l-6 4q-24 16 -44.5 25t-41.5 9q-48 0 -70.5 -37t-22.5 -91h15zM469 442l-77 -12l-16 -54h-2
q-7 31 -27.5 48.5t-52.5 17.5q-42 0 -90 -30t-90 -80t-68 -111t-26 -120q0 -43 23.5 -78t65.5 -35q29 0 56.5 12.5t51.5 33t44 43.5t40 50l2 -2q-2 -4 -5.5 -17t-7 -29t-5.5 -29.5t-2 -21.5q0 -40 42 -40q37 0 71.5 30.5t63.5 73.5l-16 12q0 -1 -3 -4q-20 -27 -37 -45
t-30 -18q-12 0 -12 15q0 10 6 31q1 7 2 10zM355 339q0 -57 -21 -110.5t-53.5 -94.5t-66.5 -64.5t-57 -23.5q-26 0 -41 22.5t-15 49.5q0 43 18 95t47 99t63 76.5t65 29.5q33 0 47 -21.5t14 -57.5z" />
    <glyph glyph-name="adieresis" unicode="&#xe4;" 
d="M269 536q22 0 37.5 15.5t15.5 37.5t-15.5 37.5t-37.5 15.5t-37.5 -15.5t-15.5 -37.5t15.5 -37.5t37.5 -15.5zM441 536q22 0 37.5 15.5t15.5 37.5t-15.5 37.5t-37.5 15.5t-37.5 -15.5t-15.5 -37.5t15.5 -37.5t37.5 -15.5zM469 442l-77 -12l-16 -54h-2q-7 31 -27.5 48.5
t-52.5 17.5q-42 0 -90 -30t-90 -80t-68 -111t-26 -120q0 -43 23.5 -78t65.5 -35q29 0 56.5 12.5t51.5 33t44 43.5t40 50l2 -2q-2 -4 -5.5 -17t-7 -29t-5.5 -29.5t-2 -21.5q0 -40 42 -40q37 0 71.5 30.5t63.5 73.5l-16 12q0 -1 -3 -4q-20 -27 -37 -45t-30 -18q-12 0 -12 15
q0 10 6 31q1 7 2 10zM355 339q0 -57 -21 -110.5t-53.5 -94.5t-66.5 -64.5t-57 -23.5q-26 0 -41 22.5t-15 49.5q0 43 18 95t47 99t63 76.5t65 29.5q33 0 47 -21.5t14 -57.5z" />
    <glyph glyph-name="aring" unicode="&#xe5;" 
d="M268 601q0 -38 27.5 -65.5t65.5 -27.5t65.5 27.5t27.5 65.5t-27.5 65.5t-65.5 27.5t-65.5 -27.5t-27.5 -65.5zM297 601q0 26 19 45t45 19t45 -19t19 -45t-19 -45t-45 -19t-45 19t-19 45zM469 442l-77 -12l-16 -54h-2q-7 31 -27.5 48.5t-52.5 17.5q-42 0 -90 -30t-90 -80
t-68 -111t-26 -120q0 -43 23.5 -78t65.5 -35q29 0 56.5 12.5t51.5 33t44 43.5t40 50l2 -2q-2 -4 -5.5 -17t-7 -29t-5.5 -29.5t-2 -21.5q0 -40 42 -40q37 0 71.5 30.5t63.5 73.5l-16 12q0 -1 -3 -4q-20 -27 -37 -45t-30 -18q-12 0 -12 15q0 10 6 31q1 7 2 10zM355 339
q0 -57 -21 -110.5t-53.5 -94.5t-66.5 -64.5t-57 -23.5q-26 0 -41 22.5t-15 49.5q0 43 18 95t47 99t63 76.5t65 29.5q33 0 47 -21.5t14 -57.5z" />
    <glyph glyph-name="ae" unicode="&#xe6;" horiz-adv-x="667" 
d="M448 434l-64 -10l-15 -68h-2q-2 37 -19.5 61.5t-53.5 24.5q-42 0 -90 -30t-90 -80t-68 -111t-26 -120q0 -43 23.5 -78t65.5 -35q32 0 58.5 12.5t49 33t41.5 46t43 62.5l2 -2v-28q0 -53 34 -88.5t87 -35.5q54 0 105.5 33.5t89.5 82.5l-13 15q-37 -39 -70.5 -60.5
t-74.5 -21.5q-40 0 -61 26t-21 67q0 25 5 55q132 22 200 74t68 110q0 34 -27 53.5t-63 19.5q-34 0 -66.5 -15t-57.5 -40l-2 2zM346 347q0 -47 -19 -100t-49 -99t-63 -74t-58 -28q-26 0 -41 22.5t-15 49.5q0 43 18 95t47 99t63 76.5t65 29.5q29 0 40.5 -19.5t11.5 -51.5z
M389 209q21 98 64 153.5t92 55.5q18 0 30.5 -15t12.5 -33t-11 -41.5t-34.5 -47t-62 -43t-91.5 -29.5z" />
    <glyph glyph-name="ccedilla" unicode="&#xe7;" horiz-adv-x="444" 
d="M195 10h-40l-71 -94q28 0 48 -9t20 -33q0 -30 -28 -44t-63 -14q-21 0 -53 7l-8 -18q56 -13 91 -13q22 0 48.5 6t50 18t39 30.5t15.5 42.5q0 32 -23 54t-57 26zM372 119q-40 -42 -76 -64.5t-81 -22.5q-51 0 -79 30t-28 81q0 43 16 91t46 90.5t70 68t85 25.5q16 0 32 -7
t16 -21q0 -7 -13 -18q-11 -9 -16.5 -17.5t-5.5 -22.5q0 -15 10 -25t25 -10q24 0 38 22t14 48q0 39 -32.5 57t-74.5 18q-53 0 -105 -26.5t-94.5 -71.5t-67 -100.5t-24.5 -110.5q0 -67 39.5 -106t106.5 -39q64 0 116 31.5t97 87.5z" />
    <glyph glyph-name="egrave" unicode="&#xe8;" horiz-adv-x="444" 
d="M322 684h-110l144 -167h18zM383 117q-53 -41 -87.5 -59.5t-73.5 -18.5q-45 0 -77 29.5t-32 74.5q0 16 4 40q59 6 114.5 21t100 39t70.5 56.5t26 70.5q0 39 -31 55.5t-73 16.5q-55 0 -108 -26.5t-95.5 -71.5t-67 -100.5t-24.5 -109.5q0 -18 6.5 -42t22.5 -48t44 -40
t69 -16q60 0 115.5 32t106.5 83zM121 208q6 33 23 69.5t42.5 69t57 52t65.5 19.5q22 0 35.5 -12.5t13.5 -34.5q0 -21 -14 -46.5t-42.5 -49t-74 -42t-106.5 -25.5z" />
    <glyph glyph-name="eacute" unicode="&#xe9;" horiz-adv-x="444" 
d="M416 684h-110l-52 -167h18zM383 117q-53 -41 -87.5 -59.5t-73.5 -18.5q-45 0 -77 29.5t-32 74.5q0 16 4 40q59 6 114.5 21t100 39t70.5 56.5t26 70.5q0 39 -31 55.5t-73 16.5q-55 0 -108 -26.5t-95.5 -71.5t-67 -100.5t-24.5 -109.5q0 -18 6.5 -42t22.5 -48t44 -40
t69 -16q60 0 115.5 32t106.5 83zM121 208q6 33 23 69.5t42.5 69t57 52t65.5 19.5q22 0 35.5 -12.5t13.5 -34.5q0 -21 -14 -46.5t-42.5 -49t-74 -42t-106.5 -25.5z" />
    <glyph glyph-name="ecircumflex" unicode="&#xea;" horiz-adv-x="444" 
d="M405 677h-73l-152 -154h13l156 99l82 -99h10zM383 117q-53 -41 -87.5 -59.5t-73.5 -18.5q-45 0 -77 29.5t-32 74.5q0 16 4 40q59 6 114.5 21t100 39t70.5 56.5t26 70.5q0 39 -31 55.5t-73 16.5q-55 0 -108 -26.5t-95.5 -71.5t-67 -100.5t-24.5 -109.5q0 -18 6.5 -42
t22.5 -48t44 -40t69 -16q60 0 115.5 32t106.5 83zM121 208q6 33 23 69.5t42.5 69t57 52t65.5 19.5q22 0 35.5 -12.5t13.5 -34.5q0 -21 -14 -46.5t-42.5 -49t-74 -42t-106.5 -25.5z" />
    <glyph glyph-name="edieresis" unicode="&#xeb;" horiz-adv-x="444" 
d="M241 536q22 0 37.5 15.5t15.5 37.5t-15.5 37.5t-37.5 15.5t-37.5 -15.5t-15.5 -37.5t15.5 -37.5t37.5 -15.5zM413 536q22 0 37.5 15.5t15.5 37.5t-15.5 37.5t-37.5 15.5t-37.5 -15.5t-15.5 -37.5t15.5 -37.5t37.5 -15.5zM383 117q-53 -41 -87.5 -59.5t-73.5 -18.5
q-45 0 -77 29.5t-32 74.5q0 16 4 40q59 6 114.5 21t100 39t70.5 56.5t26 70.5q0 39 -31 55.5t-73 16.5q-55 0 -108 -26.5t-95.5 -71.5t-67 -100.5t-24.5 -109.5q0 -18 6.5 -42t22.5 -48t44 -40t69 -16q60 0 115.5 32t106.5 83zM121 208q6 33 23 69.5t42.5 69t57 52
t65.5 19.5q22 0 35.5 -12.5t13.5 -34.5q0 -21 -14 -46.5t-42.5 -49t-74 -42t-106.5 -25.5z" />
    <glyph glyph-name="igrave" unicode="&#xec;" horiz-adv-x="278" 
d="M191 684h-110l144 -167h18zM228 442h-10l-159 -27v-19q20 4 30 4q18 0 30 -6t12 -21q0 -10 -11 -47q-9 -31 -10 -35l-53 -189l-3 -12q-7 -24 -10 -35.5t-3 -20.5q0 -21 13 -33.5t34 -12.5q18 0 38.5 11t39.5 28t35 36.5t27 36.5l-17 11q-7 -10 -16 -21t-19 -21.5t-21 -18
t-19 -7.5q-14 0 -14 13q0 11 7 32z" />
    <glyph glyph-name="iacute" unicode="&#xed;" horiz-adv-x="278" 
d="M333 684h-110l-52 -167h18zM228 442h-10l-159 -27v-19q20 4 30 4q18 0 30 -6t12 -21q0 -10 -11 -47q-9 -31 -10 -35l-53 -189l-3 -12q-7 -24 -10 -35.5t-3 -20.5q0 -21 13 -33.5t34 -12.5q18 0 38.5 11t39.5 28t35 36.5t27 36.5l-17 11q-7 -10 -16 -21t-19 -21.5t-21 -18
t-19 -7.5q-14 0 -14 13q0 11 7 32z" />
    <glyph glyph-name="icircumflex" unicode="&#xee;" horiz-adv-x="278" 
d="M294 677h-73l-152 -154h13l156 99l82 -99h10zM228 442h-10l-159 -27v-19q20 4 30 4q18 0 30 -6t12 -21q0 -10 -11 -47q-9 -31 -10 -35l-53 -189l-3 -12q-7 -24 -10 -35.5t-3 -20.5q0 -21 13 -33.5t34 -12.5q18 0 38.5 11t39.5 28t35 36.5t27 36.5l-17 11q-7 -10 -16 -21
t-19 -21.5t-21 -18t-19 -7.5q-14 0 -14 13q0 11 7 32z" />
    <glyph glyph-name="idieresis" unicode="&#xef;" horiz-adv-x="278" 
d="M140 536q22 0 37.5 15.5t15.5 37.5t-15.5 37.5t-37.5 15.5t-37.5 -15.5t-15.5 -37.5t15.5 -37.5t37.5 -15.5zM312 536q22 0 37.5 15.5t15.5 37.5t-15.5 37.5t-37.5 15.5t-37.5 -15.5t-15.5 -37.5t15.5 -37.5t37.5 -15.5zM228 442h-10l-159 -27v-19q20 4 30 4q18 0 30 -6
t12 -21q0 -10 -11 -47q-9 -31 -10 -35l-53 -189l-3 -12q-7 -24 -10 -35.5t-3 -20.5q0 -21 13 -33.5t34 -12.5q18 0 38.5 11t39.5 28t35 36.5t27 36.5l-17 11q-7 -10 -16 -21t-19 -21.5t-21 -18t-19 -7.5q-14 0 -14 13q0 11 7 32z" />
    <glyph glyph-name="eth" unicode="&#xf0;" 
d="M341 576q38 -85 38 -171h-2q-16 22 -34.5 29.5t-38.5 7.5q-46 0 -95 -25t-90 -68t-66 -97t-25 -110q0 -69 43 -111.5t112 -42.5q61 0 113 29t90 77t58.5 106.5t20.5 115.5q0 77 -22.5 145.5t-63.5 134.5l104 56l-14 25l-107 -59q-28 42 -66 74l-17 -11q35 -45 50 -80
l-109 -59l14 -24zM194 12q-41 0 -63 27t-22 70t15 96t41.5 102t61.5 80t74 31t59.5 -27t20.5 -66q0 -51 -15.5 -106.5t-42.5 -102.5t-61 -75.5t-68 -28.5z" />
    <glyph glyph-name="ntilde" unicode="&#xf1;" 
d="M195 538q4 29 14.5 48.5t32.5 19.5q13 0 27.5 -7.5t37.5 -22.5l6 -4q25 -16 45 -25t41 -9q48 0 70.5 37t22.5 91h-15q-4 -29 -14 -48.5t-33 -19.5q-13 0 -27.5 7.5t-37.5 22.5l-6 4q-24 16 -44.5 25t-41.5 9q-48 0 -70.5 -37t-22.5 -91h15zM221 442h-10l-159 -27v-19
q20 4 30 4q18 0 30 -6t12 -21q0 -10 -11 -47q-9 -31 -10 -35l-84 -291h73l31 97q12 37 39 86.5t61 95.5t66.5 75.5t53.5 29.5q23 0 23 -25q0 -12 -7 -39t-32 -112v-1q-28 -95 -36.5 -128.5t-8.5 -48.5q0 -19 12 -30.5t30 -11.5q17 0 36.5 11t37.5 28t34 36.5t26 36.5l-16 9
l-15.5 -19.5t-18 -21t-19.5 -18t-17 -7.5q-13 0 -13 15q0 6 10 39.5l26 84.5l2 8l14 46l18 62.5t9.5 35t4.5 26t1 23.5q0 25 -15.5 42t-40.5 17q-30 0 -60.5 -19t-59 -49.5t-50.5 -60.5t-49 -71q-4 -5 -10 -14l-2 2z" />
    <glyph glyph-name="ograve" unicode="&#xf2;" 
d="M322 684h-110l144 -167h18zM183 -12q54 0 105 25.5t90.5 69t61.5 97t22 106.5q0 67 -40 111.5t-106 44.5q-55 0 -107 -25.5t-93 -69.5t-64.5 -97.5t-23.5 -107.5q0 -69 43 -111.5t112 -42.5zM194 12q-41 0 -63 27t-22 70t15 96t41.5 102t61.5 80t74 31t59.5 -27t20.5 -66
q0 -51 -15.5 -106.5t-42.5 -102.5t-61 -75.5t-68 -28.5z" />
    <glyph glyph-name="oacute" unicode="&#xf3;" 
d="M444 684h-110l-52 -167h18zM183 -12q54 0 105 25.5t90.5 69t61.5 97t22 106.5q0 67 -40 111.5t-106 44.5q-55 0 -107 -25.5t-93 -69.5t-64.5 -97.5t-23.5 -107.5q0 -69 43 -111.5t112 -42.5zM194 12q-41 0 -63 27t-22 70t15 96t41.5 102t61.5 80t74 31t59.5 -27t20.5 -66
q0 -51 -15.5 -106.5t-42.5 -102.5t-61 -75.5t-68 -28.5z" />
    <glyph glyph-name="ocircumflex" unicode="&#xf4;" 
d="M423 677h-73l-152 -154h13l156 99l82 -99h10zM183 -12q54 0 105 25.5t90.5 69t61.5 97t22 106.5q0 67 -40 111.5t-106 44.5q-55 0 -107 -25.5t-93 -69.5t-64.5 -97.5t-23.5 -107.5q0 -69 43 -111.5t112 -42.5zM194 12q-41 0 -63 27t-22 70t15 96t41.5 102t61.5 80t74 31
t59.5 -27t20.5 -66q0 -51 -15.5 -106.5t-42.5 -102.5t-61 -75.5t-68 -28.5z" />
    <glyph glyph-name="otilde" unicode="&#xf5;" 
d="M195 538q4 29 14.5 48.5t32.5 19.5q13 0 27.5 -7.5t37.5 -22.5l6 -4q25 -16 45 -25t41 -9q48 0 70.5 37t22.5 91h-15q-4 -29 -14 -48.5t-33 -19.5q-13 0 -27.5 7.5t-37.5 22.5l-6 4q-24 16 -44.5 25t-41.5 9q-48 0 -70.5 -37t-22.5 -91h15zM183 -12q54 0 105 25.5
t90.5 69t61.5 97t22 106.5q0 67 -40 111.5t-106 44.5q-55 0 -107 -25.5t-93 -69.5t-64.5 -97.5t-23.5 -107.5q0 -69 43 -111.5t112 -42.5zM194 12q-41 0 -63 27t-22 70t15 96t41.5 102t61.5 80t74 31t59.5 -27t20.5 -66q0 -51 -15.5 -106.5t-42.5 -102.5t-61 -75.5
t-68 -28.5z" />
    <glyph glyph-name="odieresis" unicode="&#xf6;" 
d="M269 536q22 0 37.5 15.5t15.5 37.5t-15.5 37.5t-37.5 15.5t-37.5 -15.5t-15.5 -37.5t15.5 -37.5t37.5 -15.5zM441 536q22 0 37.5 15.5t15.5 37.5t-15.5 37.5t-37.5 15.5t-37.5 -15.5t-15.5 -37.5t15.5 -37.5t37.5 -15.5zM183 -12q54 0 105 25.5t90.5 69t61.5 97t22 106.5
q0 67 -40 111.5t-106 44.5q-55 0 -107 -25.5t-93 -69.5t-64.5 -97.5t-23.5 -107.5q0 -69 43 -111.5t112 -42.5zM194 12q-41 0 -63 27t-22 70t15 96t41.5 102t61.5 80t74 31t59.5 -27t20.5 -66q0 -51 -15.5 -106.5t-42.5 -102.5t-61 -75.5t-68 -28.5z" />
    <glyph glyph-name="divide" unicode="&#xf7;" horiz-adv-x="675" 
d="M626 312v40h-526v-40h526zM363 441q18 0 30.5 12.5t12.5 30.5t-12.5 30.5t-30.5 12.5t-30.5 -12.5t-12.5 -30.5t12.5 -30.5t30.5 -12.5zM363 137q18 0 30.5 12.5t12.5 30.5t-12.5 30.5t-30.5 12.5t-30.5 -12.5t-12.5 -30.5t12.5 -30.5t30.5 -12.5z" />
    <glyph glyph-name="oslash" unicode="&#xf8;" 
d="M381 337v-12q0 -51 -15.5 -106.5t-42.5 -102.5t-61 -75.5t-68 -28.5q-29 0 -48 14.5t-28 38.5zM109 97v12q0 43 15 96t41.5 102t61.5 80t74 31q26 0 44.5 -13t26.5 -35zM489 452l-20 19l-60 -62q-39 33 -93 33q-55 0 -107 -25.5t-93 -69.5t-64.5 -97.5t-23.5 -107.5
q0 -55 31 -97l-57 -60l19 -21l58 60q41 -36 104 -36q54 0 105 25.5t90.5 69t61.5 97t22 106.5q0 62 -33 103z" />
    <glyph glyph-name="ugrave" unicode="&#xf9;" 
d="M292 684h-110l144 -167h18zM475 442l-79 -12l-12 -44q-20 -72 -52 -135t-68.5 -109t-69 -71t-51.5 -25q-22 0 -22 22t20 87q10 30 14 45l28.5 101.5l13.5 50.5t6.5 29t1.5 19q0 42 -42 42q-18 0 -37.5 -10t-38 -26t-33.5 -34.5t-25 -34.5l15 -10l12 15q16 21 29 33t26 12
q7 0 10 -4.5t3 -10.5q0 -14 -5 -33.5t-21 -75.5q-23 -77 -28 -95v-1q-11 -39 -18 -68.5t-7 -51.5q0 -25 14.5 -42t39.5 -17q34 0 69.5 25t67 62.5t54.5 72.5l48 76l2 -2q-26 -77 -37.5 -122t-11.5 -73q0 -39 41 -39q18 0 37 10.5t36.5 27.5t31.5 35.5t25 35.5l-15 11
q-25 -37 -39.5 -51t-29.5 -14q-12 0 -12 15q0 11 7.5 38.5l14.5 52.5l1 2z" />
    <glyph glyph-name="uacute" unicode="&#xfa;" 
d="M444 684h-110l-52 -167h18zM475 442l-79 -12l-12 -44q-20 -72 -52 -135t-68.5 -109t-69 -71t-51.5 -25q-22 0 -22 22t20 87q10 30 14 45l28.5 101.5l13.5 50.5t6.5 29t1.5 19q0 42 -42 42q-18 0 -37.5 -10t-38 -26t-33.5 -34.5t-25 -34.5l15 -10l12 15q16 21 29 33t26 12
q7 0 10 -4.5t3 -10.5q0 -14 -5 -33.5t-21 -75.5q-23 -77 -28 -95v-1q-11 -39 -18 -68.5t-7 -51.5q0 -25 14.5 -42t39.5 -17q34 0 69.5 25t67 62.5t54.5 72.5l48 76l2 -2q-26 -77 -37.5 -122t-11.5 -73q0 -39 41 -39q18 0 37 10.5t36.5 27.5t31.5 35.5t25 35.5l-15 11
q-25 -37 -39.5 -51t-29.5 -14q-12 0 -12 15q0 11 7.5 38.5l14.5 52.5l1 2z" />
    <glyph glyph-name="ucircumflex" unicode="&#xfb;" 
d="M433 677h-73l-152 -154h13l156 99l82 -99h10zM475 442l-79 -12l-12 -44q-20 -72 -52 -135t-68.5 -109t-69 -71t-51.5 -25q-22 0 -22 22t20 87q10 30 14 45l28.5 101.5l13.5 50.5t6.5 29t1.5 19q0 42 -42 42q-18 0 -37.5 -10t-38 -26t-33.5 -34.5t-25 -34.5l15 -10l12 15
q16 21 29 33t26 12q7 0 10 -4.5t3 -10.5q0 -14 -5 -33.5t-21 -75.5q-23 -77 -28 -95v-1q-11 -39 -18 -68.5t-7 -51.5q0 -25 14.5 -42t39.5 -17q34 0 69.5 25t67 62.5t54.5 72.5l48 76l2 -2q-26 -77 -37.5 -122t-11.5 -73q0 -39 41 -39q18 0 37 10.5t36.5 27.5t31.5 35.5
t25 35.5l-15 11q-25 -37 -39.5 -51t-29.5 -14q-12 0 -12 15q0 11 7.5 38.5l14.5 52.5l1 2z" />
    <glyph glyph-name="udieresis" unicode="&#xfc;" 
d="M269 536q22 0 37.5 15.5t15.5 37.5t-15.5 37.5t-37.5 15.5t-37.5 -15.5t-15.5 -37.5t15.5 -37.5t37.5 -15.5zM441 536q22 0 37.5 15.5t15.5 37.5t-15.5 37.5t-37.5 15.5t-37.5 -15.5t-15.5 -37.5t15.5 -37.5t37.5 -15.5zM475 442l-79 -12l-12 -44q-20 -72 -52 -135
t-68.5 -109t-69 -71t-51.5 -25q-22 0 -22 22t20 87q10 30 14 45l28.5 101.5l13.5 50.5t6.5 29t1.5 19q0 42 -42 42q-18 0 -37.5 -10t-38 -26t-33.5 -34.5t-25 -34.5l15 -10l12 15q16 21 29 33t26 12q7 0 10 -4.5t3 -10.5q0 -14 -5 -33.5t-21 -75.5q-23 -77 -28 -95v-1
q-11 -39 -18 -68.5t-7 -51.5q0 -25 14.5 -42t39.5 -17q34 0 69.5 25t67 62.5t54.5 72.5l48 76l2 -2q-26 -77 -37.5 -122t-11.5 -73q0 -39 41 -39q18 0 37 10.5t36.5 27.5t31.5 35.5t25 35.5l-15 11q-25 -37 -39.5 -51t-29.5 -14q-12 0 -12 15q0 11 7.5 38.5l14.5 52.5l1 2z
" />
    <glyph glyph-name="yacute" unicode="&#xfd;" horiz-adv-x="444" 
d="M428 684h-110l-52 -167h18zM19 406l3 -18q15 3 46 3q29 0 41 -24.5t17 -86.5l27 -308q-7 -11 -26.5 -33t-43 -46t-44 -40t-30.5 -16q-6 0 -10 13q-3 10 -8.5 16.5t-19.5 6.5q-18 0 -33.5 -16.5t-15.5 -34.5q0 -15 12 -26.5t27 -11.5q43 0 93 46.5t147 167.5q6 8 16 20
q125 157 174 230.5t49 126.5q0 26 -13 46.5t-37 20.5q-19 0 -31 -12.5t-12 -31.5q0 -21 9 -30t26 -16q10 -4 15 -8t5 -11q0 -10 -11 -31.5t-29.5 -49l-39 -56.5l-57.5 -80l-46 -64l-23 255q-5 51 -11.5 79t-22.5 56z" />
    <glyph glyph-name="thorn" unicode="&#xfe;" 
d="M294 694h-10l-159 -27v-19q20 4 30 4q18 0 30 -6t12 -21q0 -10 -11 -47q-9 -31 -10 -35l-190 -658q-15 -51 -32 -65.5t-60 -14.5l-5 -18h230l5 18q-33 0 -53.5 5.5t-20.5 27.5q0 10 3 22t9 31l2 8l32 114q40 -25 83 -25q60 0 114 32t93.5 83t61.5 108.5t22 106.5
q0 50 -28 87t-73 37q-53 0 -96.5 -31t-83.5 -82l-2 2zM142 172q18 61 41.5 105.5t49 71t49.5 38.5t45 12q32 0 47 -24t15 -59q0 -49 -17.5 -102.5t-47 -98.5t-64.5 -72.5t-69 -27.5q-25 0 -47.5 9t-36.5 27z" />
    <glyph glyph-name="ydieresis" unicode="&#xff;" horiz-adv-x="444" 
d="M241 536q22 0 37.5 15.5t15.5 37.5t-15.5 37.5t-37.5 15.5t-37.5 -15.5t-15.5 -37.5t15.5 -37.5t37.5 -15.5zM413 536q22 0 37.5 15.5t15.5 37.5t-15.5 37.5t-37.5 15.5t-37.5 -15.5t-15.5 -37.5t15.5 -37.5t37.5 -15.5zM19 406l3 -18q15 3 46 3q29 0 41 -24.5t17 -86.5
l27 -308q-7 -11 -26.5 -33t-43 -46t-44 -40t-30.5 -16q-6 0 -10 13q-3 10 -8.5 16.5t-19.5 6.5q-18 0 -33.5 -16.5t-15.5 -34.5q0 -15 12 -26.5t27 -11.5q43 0 93 46.5t147 167.5q6 8 16 20q125 157 174 230.5t49 126.5q0 26 -13 46.5t-37 20.5q-19 0 -31 -12.5t-12 -31.5
q0 -21 9 -30t26 -16q10 -4 15 -8t5 -11q0 -10 -11 -31.5t-29.5 -49l-39 -56.5l-57.5 -80l-46 -64l-23 255q-5 51 -11.5 79t-22.5 56z" />
    </font>
</defs>
</svg>
